<svg width="45" height="45" viewBox="0 0 45 45" fill="none" xmlns="http://www.w3.org/2000/svg">
<path d="M22.5 0L41.9856 11.25V33.75L22.5 45L3.01443 33.75V11.25L22.5 0Z" fill="#545454"/>
<path d="M14.1223 8.83931L12.3585 17.0173L31.326 17.0301L29.4737 8.84011H14.1223V8.83931ZM12.4501 19.5895L7.23169 23.3823L14.3562 35.4584H17.196L20.5597 32.3888V30.8676L17.0682 27.5995V22.4598L12.4501 19.5911V19.5895ZM27.1354 22.496V27.6365L23.6358 30.8925L23.6487 32.4394L27.0317 35.4584H29.849L36.9638 23.4185L31.7278 19.5887L27.1354 22.496ZM26.1646 19.0061H18.0317L19.401 22.4615L18.9783 26.3154L25.218 26.3057L24.8267 22.4615L26.1646 19.0061Z" fill="white" stroke="#545454" stroke-linecap="round" stroke-linejoin="round"/>
</svg>
