<svg width="173" height="64" viewBox="0 0 173 64" fill="none" xmlns="http://www.w3.org/2000/svg">
<rect width="172.705" height="64" rx="32" fill="#FF8003"/>
<path d="M27.996 23.274H32.868V24.772H27.996V23.274ZM28.136 27.474H33.666V29H26.316V19.2H33.47V20.726H28.136V27.474ZM34.3819 29L37.6719 24.716L37.6439 25.654L34.5079 21.524H36.4539L38.6519 24.464H37.9099L40.1219 21.524H42.0119L38.8479 25.654L38.8619 24.716L42.1379 29H40.1639L37.8539 25.878L38.5819 25.976L36.3139 29H34.3819ZM47.5733 29.098C46.9666 29.098 46.4113 28.958 45.9073 28.678C45.4126 28.398 45.0159 27.978 44.7173 27.418C44.4279 26.8487 44.2833 26.13 44.2833 25.262C44.2833 24.3847 44.4233 23.666 44.7033 23.106C44.9926 22.546 45.3846 22.1307 45.8792 21.86C46.3739 21.58 46.9386 21.44 47.5733 21.44C48.3106 21.44 48.9593 21.5987 49.5193 21.916C50.0886 22.2333 50.5366 22.6767 50.8633 23.246C51.1993 23.8153 51.3673 24.4873 51.3673 25.262C51.3673 26.0367 51.1993 26.7133 50.8633 27.292C50.5366 27.8613 50.0886 28.3047 49.5193 28.622C48.9593 28.9393 48.3106 29.098 47.5733 29.098ZM43.4293 31.716V21.524H45.0953V23.288L45.0393 25.276L45.1793 27.264V31.716H43.4293ZM47.3773 27.6C47.7973 27.6 48.1706 27.5067 48.4973 27.32C48.8333 27.1333 49.0993 26.8627 49.2953 26.508C49.4913 26.1533 49.5893 25.738 49.5893 25.262C49.5893 24.7767 49.4913 24.3613 49.2953 24.016C49.0993 23.6613 48.8333 23.3907 48.4973 23.204C48.1706 23.0173 47.7973 22.924 47.3773 22.924C46.9573 22.924 46.5793 23.0173 46.2433 23.204C45.9073 23.3907 45.6413 23.6613 45.4453 24.016C45.2493 24.3613 45.1513 24.7767 45.1513 25.262C45.1513 25.738 45.2493 26.1533 45.4453 26.508C45.6413 26.8627 45.9073 27.1333 46.2433 27.32C46.5793 27.5067 46.9573 27.6 47.3773 27.6ZM53.0269 29V18.612H54.7769V29H53.0269ZM60.4338 29.098C59.6684 29.098 58.9871 28.9347 58.3898 28.608C57.7924 28.272 57.3211 27.8147 56.9758 27.236C56.6304 26.6573 56.4578 25.9993 56.4578 25.262C56.4578 24.5153 56.6304 23.8573 56.9758 23.288C57.3211 22.7093 57.7924 22.2567 58.3898 21.93C58.9871 21.6033 59.6684 21.44 60.4338 21.44C61.2084 21.44 61.8944 21.6033 62.4918 21.93C63.0984 22.2567 63.5698 22.7047 63.9058 23.274C64.2511 23.8433 64.4238 24.506 64.4238 25.262C64.4238 25.9993 64.2511 26.6573 63.9058 27.236C63.5698 27.8147 63.0984 28.272 62.4918 28.608C61.8944 28.9347 61.2084 29.098 60.4338 29.098ZM60.4338 27.6C60.8631 27.6 61.2458 27.5067 61.5818 27.32C61.9178 27.1333 62.1791 26.8627 62.3658 26.508C62.5618 26.1533 62.6598 25.738 62.6598 25.262C62.6598 24.7767 62.5618 24.3613 62.3658 24.016C62.1791 23.6613 61.9178 23.3907 61.5818 23.204C61.2458 23.0173 60.8678 22.924 60.4478 22.924C60.0184 22.924 59.6358 23.0173 59.2998 23.204C58.9731 23.3907 58.7118 23.6613 58.5158 24.016C58.3198 24.3613 58.2218 24.7767 58.2218 25.262C58.2218 25.738 58.3198 26.1533 58.5158 26.508C58.7118 26.8627 58.9731 27.1333 59.2998 27.32C59.6358 27.5067 60.0138 27.6 60.4338 27.6ZM66.0972 29V21.524H67.7632V23.582L67.5672 22.98C67.7912 22.476 68.1412 22.0933 68.6172 21.832C69.1026 21.5707 69.7046 21.44 70.4232 21.44V23.106C70.3486 23.0873 70.2786 23.078 70.2132 23.078C70.1479 23.0687 70.0826 23.064 70.0172 23.064C69.3546 23.064 68.8272 23.26 68.4352 23.652C68.0432 24.0347 67.8472 24.6087 67.8472 25.374V29H66.0972ZM75.3534 29.098C74.5227 29.098 73.7947 28.9347 73.1694 28.608C72.5534 28.272 72.0727 27.8147 71.7274 27.236C71.3914 26.6573 71.2234 25.9993 71.2234 25.262C71.2234 24.5153 71.3867 23.8573 71.7134 23.288C72.0494 22.7093 72.5067 22.2567 73.0854 21.93C73.6734 21.6033 74.3407 21.44 75.0874 21.44C75.8154 21.44 76.4641 21.5987 77.0334 21.916C77.6027 22.2333 78.0507 22.6813 78.3774 23.26C78.7041 23.8387 78.8674 24.52 78.8674 25.304C78.8674 25.3787 78.8627 25.4627 78.8534 25.556C78.8534 25.6493 78.8487 25.738 78.8394 25.822H72.6094V24.66H77.9154L77.2294 25.024C77.2387 24.5947 77.1501 24.2167 76.9634 23.89C76.7767 23.5633 76.5201 23.3067 76.1934 23.12C75.8761 22.9333 75.5074 22.84 75.0874 22.84C74.6581 22.84 74.2801 22.9333 73.9534 23.12C73.6361 23.3067 73.3841 23.568 73.1974 23.904C73.0201 24.2307 72.9314 24.618 72.9314 25.066V25.346C72.9314 25.794 73.0341 26.1907 73.2394 26.536C73.4447 26.8813 73.7341 27.1473 74.1074 27.334C74.4807 27.5207 74.9101 27.614 75.3954 27.614C75.8154 27.614 76.1934 27.5487 76.5294 27.418C76.8654 27.2873 77.1641 27.082 77.4254 26.802L78.3634 27.88C78.0274 28.272 77.6027 28.5753 77.0894 28.79C76.5854 28.9953 76.0067 29.098 75.3534 29.098ZM87.2315 29.098C86.4102 29.098 85.7755 28.888 85.3275 28.468C84.8795 28.0387 84.6555 27.4087 84.6555 26.578V19.872H86.4055V26.536C86.4055 26.8907 86.4942 27.166 86.6715 27.362C86.8582 27.558 87.1149 27.656 87.4415 27.656C87.8335 27.656 88.1602 27.5533 88.4215 27.348L88.9115 28.594C88.7062 28.762 88.4542 28.888 88.1555 28.972C87.8569 29.056 87.5489 29.098 87.2315 29.098ZM83.4235 22.98V21.58H88.4075V22.98H83.4235ZM94.5931 21.44C95.1905 21.44 95.7225 21.5567 96.1891 21.79C96.6651 22.0233 97.0385 22.3827 97.3091 22.868C97.5798 23.344 97.7151 23.96 97.7151 24.716V29H95.9651V24.94C95.9651 24.2773 95.8065 23.7827 95.4891 23.456C95.1811 23.1293 94.7471 22.966 94.1871 22.966C93.7765 22.966 93.4125 23.05 93.0951 23.218C92.7778 23.386 92.5305 23.638 92.3531 23.974C92.1851 24.3007 92.1011 24.716 92.1011 25.22V29H90.3511V18.612H92.1011V23.54L91.7231 22.924C91.9845 22.448 92.3625 22.084 92.8571 21.832C93.3611 21.5707 93.9398 21.44 94.5931 21.44ZM103.463 29.098C102.632 29.098 101.904 28.9347 101.279 28.608C100.663 28.272 100.182 27.8147 99.8368 27.236C99.5008 26.6573 99.3328 25.9993 99.3328 25.262C99.3328 24.5153 99.4961 23.8573 99.8228 23.288C100.159 22.7093 100.616 22.2567 101.195 21.93C101.783 21.6033 102.45 21.44 103.197 21.44C103.925 21.44 104.573 21.5987 105.143 21.916C105.712 22.2333 106.16 22.6813 106.487 23.26C106.813 23.8387 106.977 24.52 106.977 25.304C106.977 25.3787 106.972 25.4627 106.963 25.556C106.963 25.6493 106.958 25.738 106.949 25.822H100.719V24.66H106.025L105.339 25.024C105.348 24.5947 105.259 24.2167 105.073 23.89C104.886 23.5633 104.629 23.3067 104.303 23.12C103.985 22.9333 103.617 22.84 103.197 22.84C102.767 22.84 102.389 22.9333 102.063 23.12C101.745 23.3067 101.493 23.568 101.307 23.904C101.129 24.2307 101.041 24.618 101.041 25.066V25.346C101.041 25.794 101.143 26.1907 101.349 26.536C101.554 26.8813 101.843 27.1473 102.217 27.334C102.59 27.5207 103.019 27.614 103.505 27.614C103.925 27.614 104.303 27.5487 104.639 27.418C104.975 27.2873 105.273 27.082 105.535 26.802L106.473 27.88C106.137 28.272 105.712 28.5753 105.199 28.79C104.695 28.9953 104.116 29.098 103.463 29.098ZM26.316 46V36.2H27.814L33.96 43.746H33.218V36.2H35.024V46H33.526L27.38 38.454H28.122V46H26.316ZM40.996 46.098C40.1653 46.098 39.4373 45.9347 38.812 45.608C38.196 45.272 37.7153 44.8147 37.37 44.236C37.034 43.6573 36.866 42.9993 36.866 42.262C36.866 41.5153 37.0293 40.8573 37.356 40.288C37.692 39.7093 38.1493 39.2567 38.728 38.93C39.316 38.6033 39.9833 38.44 40.73 38.44C41.458 38.44 42.1067 38.5987 42.676 38.916C43.2453 39.2333 43.6933 39.6813 44.02 40.26C44.3467 40.8387 44.51 41.52 44.51 42.304C44.51 42.3787 44.5053 42.4627 44.496 42.556C44.496 42.6493 44.4913 42.738 44.482 42.822H38.252V41.66H43.558L42.872 42.024C42.8813 41.5947 42.7927 41.2167 42.606 40.89C42.4193 40.5633 42.1627 40.3067 41.836 40.12C41.5187 39.9333 41.15 39.84 40.73 39.84C40.3007 39.84 39.9227 39.9333 39.596 40.12C39.2787 40.3067 39.0267 40.568 38.84 40.904C38.6627 41.2307 38.574 41.618 38.574 42.066V42.346C38.574 42.794 38.6767 43.1907 38.882 43.536C39.0873 43.8813 39.3767 44.1473 39.75 44.334C40.1233 44.5207 40.5527 44.614 41.038 44.614C41.458 44.614 41.836 44.5487 42.172 44.418C42.508 44.2873 42.8067 44.082 43.068 43.802L44.006 44.88C43.67 45.272 43.2453 45.5753 42.732 45.79C42.228 45.9953 41.6493 46.098 40.996 46.098ZM49.005 46.098C48.1836 46.098 47.549 45.888 47.101 45.468C46.653 45.0387 46.429 44.4087 46.429 43.578V36.872H48.179V43.536C48.179 43.8907 48.2676 44.166 48.445 44.362C48.6316 44.558 48.8883 44.656 49.215 44.656C49.607 44.656 49.9336 44.5533 50.195 44.348L50.685 45.594C50.4796 45.762 50.2276 45.888 49.929 45.972C49.6303 46.056 49.3223 46.098 49.005 46.098ZM45.197 39.98V38.58H50.181V39.98H45.197ZM53.6398 46L50.8958 38.524H52.5478L54.8998 45.118H54.1158L56.5798 38.524H58.0498L60.4438 45.118H59.6738L62.0958 38.524H63.6498L60.8918 46H59.2118L57.0278 40.162H57.5458L55.3198 46H53.6398ZM68.008 46.098C67.2427 46.098 66.5613 45.9347 65.964 45.608C65.3667 45.272 64.8953 44.8147 64.55 44.236C64.2047 43.6573 64.032 42.9993 64.032 42.262C64.032 41.5153 64.2047 40.8573 64.55 40.288C64.8953 39.7093 65.3667 39.2567 65.964 38.93C66.5613 38.6033 67.2427 38.44 68.008 38.44C68.7827 38.44 69.4687 38.6033 70.066 38.93C70.6727 39.2567 71.144 39.7047 71.48 40.274C71.8253 40.8433 71.998 41.506 71.998 42.262C71.998 42.9993 71.8253 43.6573 71.48 44.236C71.144 44.8147 70.6727 45.272 70.066 45.608C69.4687 45.9347 68.7827 46.098 68.008 46.098ZM68.008 44.6C68.4373 44.6 68.82 44.5067 69.156 44.32C69.492 44.1333 69.7533 43.8627 69.94 43.508C70.136 43.1533 70.234 42.738 70.234 42.262C70.234 41.7767 70.136 41.3613 69.94 41.016C69.7533 40.6613 69.492 40.3907 69.156 40.204C68.82 40.0173 68.442 39.924 68.022 39.924C67.5927 39.924 67.21 40.0173 66.874 40.204C66.5473 40.3907 66.286 40.6613 66.09 41.016C65.894 41.3613 65.796 41.7767 65.796 42.262C65.796 42.738 65.894 43.1533 66.09 43.508C66.286 43.8627 66.5473 44.1333 66.874 44.32C67.21 44.5067 67.588 44.6 68.008 44.6ZM73.6714 46V38.524H75.3374V40.582L75.1414 39.98C75.3654 39.476 75.7154 39.0933 76.1914 38.832C76.6768 38.5707 77.2788 38.44 77.9974 38.44V40.106C77.9228 40.0873 77.8528 40.078 77.7874 40.078C77.7221 40.0687 77.6568 40.064 77.5914 40.064C76.9288 40.064 76.4014 40.26 76.0094 40.652C75.6174 41.0347 75.4214 41.6087 75.4214 42.374V46H73.6714ZM80.91 44.334L80.952 42.136L84.858 38.524H86.958L83.64 41.856L82.716 42.626L80.91 44.334ZM79.482 46V35.612H81.232V46H79.482ZM85.124 46L82.394 42.626L83.5 41.226L87.252 46H85.124Z" fill="#1A1A1A"/>
<path d="M149.154 24.9678C149.368 24.1676 148.893 23.3451 148.093 23.1307L135.053 19.6366C134.253 19.4222 133.431 19.8971 133.216 20.6973C133.002 21.4975 133.477 22.32 134.277 22.5344L145.868 25.6402L142.762 37.2314C142.548 38.0316 143.023 38.8541 143.823 39.0685C144.623 39.2829 145.445 38.808 145.66 38.0078L149.154 24.9678ZM122.75 40.7194L148.455 25.8786L146.955 23.2805L121.25 38.1214L122.75 40.7194Z" fill="black"/>
</svg>
