<svg width="108" height="48" viewBox="0 0 108 48" fill="none" xmlns="http://www.w3.org/2000/svg">
<rect x="15" y="15" width="18" height="18" rx="9" fill="white"/>
<path d="M25.3579 19.145C24.1355 18.861 22.8643 18.861 21.6419 19.145C20.9359 18.712 20.3969 18.513 20.0049 18.429C19.8376 18.3912 19.6664 18.3735 19.4949 18.376C19.4169 18.3781 19.3392 18.3875 19.2629 18.404L19.2529 18.406L19.2489 18.408H19.2459L19.3829 18.889L19.2459 18.409C19.1757 18.4289 19.1106 18.4639 19.0553 18.5115C19 18.5592 18.9559 18.6184 18.9259 18.685C18.6309 19.3457 18.5747 20.0884 18.7669 20.786C18.2691 21.3894 17.9977 22.1478 17.9999 22.93C17.9999 24.483 18.4579 25.527 19.2389 26.198C19.7859 26.668 20.4499 26.918 21.1159 27.061C21.0111 27.3688 20.9716 27.6951 20.9999 28.019V28.617C20.5929 28.702 20.3109 28.675 20.1099 28.609C19.8589 28.526 19.6659 28.359 19.4809 28.119C19.3842 27.9896 19.2941 27.8555 19.2109 27.717L19.1539 27.624C19.0819 27.5043 19.0073 27.3863 18.9299 27.27C18.7399 26.989 18.4579 26.637 18.0019 26.517L17.5179 26.39L17.2639 27.358L17.7479 27.485C17.8279 27.505 17.9319 27.58 18.1029 27.831C18.1687 27.9301 18.2321 28.0308 18.2929 28.133L18.3609 28.243C18.4549 28.395 18.5629 28.563 18.6879 28.727C18.9409 29.057 19.2859 29.39 19.7979 29.559C20.1479 29.675 20.5459 29.703 20.9999 29.633V31.5C20.9999 31.6326 21.0526 31.7598 21.1464 31.8536C21.2401 31.9473 21.3673 32 21.4999 32H25.4999C25.6325 32 25.7597 31.9473 25.8535 31.8536C25.9472 31.7598 25.9999 31.6326 25.9999 31.5V27.937C25.9999 27.622 25.9859 27.333 25.8969 27.064C26.5599 26.924 27.2189 26.674 27.7629 26.204C28.5429 25.528 28.9999 24.474 28.9999 22.912V22.911C28.9974 22.1352 28.726 21.3842 28.2319 20.786C28.4239 20.0887 28.3677 19.3464 28.0729 18.686C28.0432 18.6193 27.9992 18.56 27.9441 18.5122C27.889 18.4643 27.8241 18.4291 27.7539 18.409L27.6169 18.889C27.7539 18.409 27.7529 18.409 27.7519 18.409L27.7499 18.408L27.7459 18.406L27.7369 18.404C27.7122 18.3976 27.6872 18.3926 27.6619 18.389C27.6096 18.3814 27.5568 18.377 27.5039 18.376C27.3324 18.3735 27.1612 18.3913 26.9939 18.429C26.6029 18.513 26.0639 18.712 25.3579 19.145Z" fill="#545454"/>
<path d="M49.1411 29.64C48.3757 29.64 47.6711 29.5187 47.0271 29.276C46.3924 29.024 45.8371 28.674 45.3611 28.226C44.8851 27.7687 44.5164 27.232 44.2551 26.616C43.9937 26 43.8631 25.328 43.8631 24.6C43.8631 23.872 43.9937 23.2 44.2551 22.584C44.5164 21.968 44.8851 21.436 45.3611 20.988C45.8464 20.5307 46.4111 20.1807 47.0551 19.938C47.6991 19.686 48.4037 19.56 49.1691 19.56C49.9997 19.56 50.7464 19.6953 51.4091 19.966C52.0811 20.2367 52.6457 20.6333 53.1031 21.156L51.9551 22.276C51.5724 21.8933 51.1571 21.6133 50.7091 21.436C50.2704 21.2493 49.7851 21.156 49.2531 21.156C48.7397 21.156 48.2637 21.24 47.8251 21.408C47.3864 21.576 47.0084 21.814 46.6911 22.122C46.3737 22.43 46.1264 22.794 45.9491 23.214C45.7811 23.634 45.6971 24.096 45.6971 24.6C45.6971 25.0947 45.7811 25.552 45.9491 25.972C46.1264 26.392 46.3737 26.7607 46.6911 27.078C47.0084 27.386 47.3817 27.624 47.8111 27.792C48.2404 27.96 48.7164 28.044 49.2391 28.044C49.7244 28.044 50.1911 27.9693 50.6391 27.82C51.0964 27.6613 51.5304 27.4 51.9411 27.036L52.9771 28.394C52.4637 28.8047 51.8664 29.1173 51.1851 29.332C50.5131 29.5373 49.8317 29.64 49.1411 29.64ZM51.2551 28.156V24.488H52.9771V28.394L51.2551 28.156ZM55.2095 29.5V22.024H56.9595V29.5H55.2095ZM56.0915 20.792C55.7649 20.792 55.4942 20.6893 55.2795 20.484C55.0742 20.2787 54.9715 20.0313 54.9715 19.742C54.9715 19.4433 55.0742 19.196 55.2795 19C55.4942 18.7947 55.7649 18.692 56.0915 18.692C56.4182 18.692 56.6842 18.79 56.8895 18.986C57.1042 19.1727 57.2115 19.4107 57.2115 19.7C57.2115 20.008 57.1089 20.2693 56.9035 20.484C56.6982 20.6893 56.4275 20.792 56.0915 20.792ZM62.0704 29.598C61.2491 29.598 60.6144 29.388 60.1664 28.968C59.7184 28.5387 59.4944 27.9087 59.4944 27.078V20.372H61.2444V27.036C61.2444 27.3907 61.3331 27.666 61.5104 27.862C61.6971 28.058 61.9537 28.156 62.2804 28.156C62.6724 28.156 62.9991 28.0533 63.2604 27.848L63.7504 29.094C63.5451 29.262 63.2931 29.388 62.9944 29.472C62.6957 29.556 62.3877 29.598 62.0704 29.598ZM58.2624 23.48V22.08H63.2464V23.48H58.2624ZM69.432 21.94C70.0293 21.94 70.5613 22.0567 71.028 22.29C71.504 22.5233 71.8773 22.8827 72.148 23.368C72.4187 23.844 72.554 24.46 72.554 25.216V29.5H70.804V25.44C70.804 24.7773 70.6453 24.2827 70.328 23.956C70.02 23.6293 69.586 23.466 69.026 23.466C68.6153 23.466 68.2513 23.55 67.934 23.718C67.6167 23.886 67.3693 24.138 67.192 24.474C67.024 24.8007 66.94 25.216 66.94 25.72V29.5H65.19V19.112H66.94V24.04L66.562 23.424C66.8233 22.948 67.2013 22.584 67.696 22.332C68.2 22.0707 68.7787 21.94 69.432 21.94ZM77.938 29.598C77.3033 29.598 76.7433 29.4813 76.258 29.248C75.7726 29.0053 75.3946 28.6413 75.124 28.156C74.8533 27.6613 74.718 27.0407 74.718 26.294V22.024H76.468V26.056C76.468 26.728 76.6173 27.232 76.916 27.568C77.224 27.8947 77.658 28.058 78.218 28.058C78.6286 28.058 78.9833 27.974 79.282 27.806C79.59 27.638 79.828 27.386 79.996 27.05C80.1733 26.714 80.262 26.2987 80.262 25.804V22.024H82.012V29.5H80.346V27.484L80.64 28.1C80.388 28.5853 80.0193 28.9587 79.534 29.22C79.0486 29.472 78.5166 29.598 77.938 29.598ZM88.4473 29.598C87.8126 29.598 87.2479 29.458 86.7533 29.178C86.2586 28.898 85.8666 28.478 85.5773 27.918C85.2973 27.3487 85.1573 26.63 85.1573 25.762C85.1573 24.8847 85.3019 24.166 85.5913 23.606C85.8899 23.046 86.2866 22.6307 86.7813 22.36C87.2853 22.08 87.8406 21.94 88.4473 21.94C89.1846 21.94 89.8333 22.0987 90.3933 22.416C90.9626 22.7333 91.4106 23.1767 91.7373 23.746C92.0733 24.3153 92.2413 24.9873 92.2413 25.762C92.2413 26.5367 92.0733 27.2087 91.7373 27.778C91.4106 28.3473 90.9626 28.7953 90.3933 29.122C89.8333 29.4393 89.1846 29.598 88.4473 29.598ZM84.3033 29.5V19.112H86.0533V23.76L85.9133 25.748L85.9693 27.736V29.5H84.3033ZM88.2513 28.1C88.6713 28.1 89.0446 28.0067 89.3713 27.82C89.7073 27.6333 89.9733 27.3627 90.1693 27.008C90.3653 26.6533 90.4633 26.238 90.4633 25.762C90.4633 25.2767 90.3653 24.8613 90.1693 24.516C89.9733 24.1613 89.7073 23.8907 89.3713 23.704C89.0446 23.5173 88.6713 23.424 88.2513 23.424C87.8313 23.424 87.4533 23.5173 87.1173 23.704C86.7813 23.8907 86.5153 24.1613 86.3193 24.516C86.1233 24.8613 86.0253 25.2767 86.0253 25.762C86.0253 26.238 86.1233 26.6533 86.3193 27.008C86.5153 27.3627 86.7813 27.6333 87.1173 27.82C87.4533 28.0067 87.8313 28.1 88.2513 28.1Z" fill="white"/>
<rect x="0.5" y="0.5" width="107" height="47" rx="4.5" stroke="#FF7F00"/>
</svg>
