<svg width="18" height="18" viewBox="0 0 18 18" fill="none" xmlns="http://www.w3.org/2000/svg">
<rect width="18" height="18" rx="9" fill="white"/>
<path d="M10.3579 4.145C9.13553 3.86096 7.8643 3.86096 6.64192 4.145C5.93592 3.712 5.39692 3.513 5.00492 3.429C4.83761 3.39124 4.66641 3.37345 4.49492 3.376C4.41688 3.37812 4.33921 3.38749 4.26292 3.404L4.25292 3.406L4.24892 3.408H4.24592L4.38292 3.889L4.24592 3.409C4.17566 3.42886 4.11061 3.46385 4.05532 3.51154C4.00004 3.55922 3.95587 3.61843 3.92592 3.685C3.63089 4.34571 3.57468 5.08842 3.76692 5.786C3.26905 6.38936 2.99774 7.14776 2.99992 7.93C2.99992 9.483 3.45792 10.527 4.23892 11.198C4.78592 11.668 5.44992 11.918 6.11592 12.061C6.01111 12.3688 5.9716 12.6951 5.99992 13.019V13.617C5.59292 13.702 5.31092 13.675 5.10992 13.609C4.85892 13.526 4.66592 13.359 4.48092 13.119C4.38421 12.9896 4.29409 12.8555 4.21092 12.717L4.15392 12.624C4.08194 12.5043 4.00726 12.3863 3.92992 12.27C3.73992 11.989 3.45792 11.637 3.00192 11.517L2.51792 11.39L2.26392 12.358L2.74792 12.485C2.82792 12.505 2.93192 12.58 3.10292 12.831C3.16873 12.9301 3.23209 13.0308 3.29292 13.133L3.36092 13.243C3.45492 13.395 3.56292 13.563 3.68792 13.727C3.94092 14.057 4.28592 14.39 4.79792 14.559C5.14792 14.675 5.54592 14.703 5.99992 14.633V16.5C5.99992 16.6326 6.05259 16.7598 6.14636 16.8536C6.24013 16.9473 6.36731 17 6.49992 17H10.4999C10.6325 17 10.7597 16.9473 10.8535 16.8536C10.9472 16.7598 10.9999 16.6326 10.9999 16.5V12.937C10.9999 12.622 10.9859 12.333 10.8969 12.064C11.5599 11.924 12.2189 11.674 12.7629 11.204C13.5429 10.528 13.9999 9.474 13.9999 7.912V7.911C13.9974 7.13516 13.726 6.38419 13.2319 5.786C13.4239 5.08873 13.3677 4.34642 13.0729 3.686C13.0432 3.61935 12.9992 3.56001 12.9441 3.51216C12.889 3.4643 12.8241 3.42909 12.7539 3.409L12.6169 3.889C12.7539 3.409 12.7529 3.409 12.7519 3.409L12.7499 3.408L12.7459 3.406L12.7369 3.404C12.7122 3.39758 12.6872 3.39257 12.6619 3.389C12.6096 3.38136 12.5568 3.37702 12.5039 3.376C12.3324 3.37347 12.1612 3.39126 11.9939 3.429C11.6029 3.513 11.0639 3.712 10.3579 4.145Z" fill="#545454"/>
</svg>
