<svg width="50" height="50" viewBox="0 0 50 50" fill="none" xmlns="http://www.w3.org/2000/svg">
<path d="M11.4584 4.16669C9.44452 4.16669 7.72577 4.8785 6.30216 6.30211C4.87855 7.72572 4.16675 9.44447 4.16675 11.4584C4.16675 13.4722 4.87855 15.191 6.30216 16.6146C7.72577 18.0382 9.44452 18.75 11.4584 18.75C12.0834 18.75 12.6911 18.6722 13.2813 18.5167C13.8716 18.3611 14.4272 18.1438 14.948 17.8646L22.9167 25.8334V31.5625C21.389 32.0139 20.139 32.8736 19.1667 34.1417C18.1945 35.4097 17.7084 36.8764 17.7084 38.5417C17.7084 40.5556 18.4202 42.2743 19.8438 43.6979C21.2674 45.1215 22.9862 45.8333 25.0001 45.8333C27.014 45.8333 28.7327 45.1215 30.1563 43.6979C31.5799 42.2743 32.2917 40.5556 32.2917 38.5417C32.2917 36.875 31.8056 35.4077 30.8334 34.1396C29.8612 32.8715 28.6112 32.0125 27.0834 31.5625V25.8334L35.1042 17.8646C35.6251 18.1424 36.1723 18.3597 36.7459 18.5167C37.3195 18.6736 37.9181 18.7514 38.5417 18.75C40.5556 18.75 42.2744 18.0382 43.698 16.6146C45.1216 15.191 45.8334 13.4722 45.8334 11.4584C45.8334 9.44447 45.1216 7.72572 43.698 6.30211C42.2744 4.8785 40.5556 4.16669 38.5417 4.16669C36.5278 4.16669 34.8091 4.8785 33.3855 6.30211C31.9619 7.72572 31.2501 9.44447 31.2501 11.4584C31.2501 12.0834 31.3278 12.691 31.4834 13.2813C31.639 13.8716 31.8563 14.4271 32.1355 14.9479L25.0001 22.0834L17.8647 14.9479C18.1424 14.4271 18.3598 13.8716 18.5167 13.2813C18.6737 12.691 18.7515 12.0834 18.7501 11.4584C18.7501 9.44447 18.0383 7.72572 16.6147 6.30211C15.191 4.8785 13.4723 4.16669 11.4584 4.16669ZM38.5417 8.33336C39.4098 8.33336 40.148 8.63752 40.7563 9.24586C41.3646 9.85419 41.6681 10.5917 41.6667 11.4584C41.6667 12.3264 41.3626 13.0646 40.7542 13.6729C40.1459 14.2813 39.4084 14.5847 38.5417 14.5834C37.6737 14.5834 36.9355 14.2792 36.3272 13.6709C35.7188 13.0625 35.4153 12.325 35.4167 11.4584C35.4167 10.5903 35.7209 9.85211 36.3292 9.24377C36.9376 8.63544 37.6751 8.33197 38.5417 8.33336ZM25.0001 35.4167C25.8681 35.4167 26.6063 35.7208 27.2147 36.3292C27.823 36.9375 28.1265 37.675 28.1251 38.5417C28.1251 39.4097 27.8209 40.1479 27.2126 40.7563C26.6042 41.3646 25.8667 41.6681 25.0001 41.6667C24.132 41.6667 23.3938 41.3625 22.7855 40.7542C22.1772 40.1458 21.8737 39.4083 21.8751 38.5417C21.8751 37.6736 22.1792 36.9354 22.7876 36.3271C23.3959 35.7188 24.1334 35.4153 25.0001 35.4167ZM11.4584 8.33336C12.3265 8.33336 13.0647 8.63752 13.673 9.24586C14.2813 9.85419 14.5848 10.5917 14.5834 11.4584C14.5834 12.3264 14.2792 13.0646 13.6709 13.6729C13.0626 14.2813 12.3251 14.5847 11.4584 14.5834C10.5904 14.5834 9.85216 14.2792 9.24383 13.6709C8.6355 13.0625 8.33202 12.325 8.33341 11.4584C8.33341 10.5903 8.63758 9.85211 9.24591 9.24377C9.85425 8.63544 10.5917 8.33197 11.4584 8.33336Z" fill="black"/>
</svg>
