<svg width="50" height="50" viewBox="0 0 50 50" fill="none" xmlns="http://www.w3.org/2000/svg">
<g clip-path="url(#clip0_4_14)">
<path d="M16.6666 6.25C15.0724 6.24991 13.5384 6.85901 12.3785 7.95267C11.2186 9.04634 10.5205 10.5419 10.427 12.1333L10.4166 12.5V33.3333H8.85407C7.50616 33.3333 6.39574 34.3583 6.26241 35.6708L6.24991 35.9375V39.5833C6.24982 41.1775 6.85892 42.7115 7.95258 43.8714C9.04625 45.0313 10.5418 45.7294 12.1332 45.8229L12.4999 45.8333H33.3332C34.9274 45.8334 36.4614 45.2243 37.6213 44.1307C38.7812 43.037 39.4793 41.5415 39.5728 39.95L39.5833 39.5833V18.75H43.2291C43.8738 18.7503 44.4957 18.5114 44.9744 18.0796C45.4532 17.6478 45.7547 17.0538 45.8208 16.4125L45.8333 16.1458V12.5C45.8333 10.9058 45.2242 9.37184 44.1306 8.21196C43.0369 7.05207 41.5414 6.35394 39.9499 6.26042L39.5833 6.25H16.6666ZM16.6666 10.4167H35.4166V39.5833C35.4166 40.1359 35.1971 40.6658 34.8064 41.0565C34.4157 41.4472 33.8858 41.6667 33.3332 41.6667C32.7807 41.6667 32.2508 41.4472 31.8601 41.0565C31.4694 40.6658 31.2499 40.1359 31.2499 39.5833V35.9375C31.2499 34.5 30.0832 33.3333 28.6457 33.3333H14.5832V12.5C14.5832 11.9475 14.8027 11.4176 15.1934 11.0269C15.5841 10.6362 16.114 10.4167 16.6666 10.4167ZM10.4166 37.5H27.0832V39.5833C27.0832 40.3125 27.2082 41.0146 27.4374 41.6667H12.4999C11.9474 41.6667 11.4175 41.4472 11.0268 41.0565C10.6361 40.6658 10.4166 40.1359 10.4166 39.5833V37.5ZM24.9999 25C24.4474 25 23.9175 25.2195 23.5268 25.6102C23.1361 26.0009 22.9166 26.5308 22.9166 27.0833C22.9166 27.6359 23.1361 28.1658 23.5268 28.5565C23.9175 28.9472 24.4474 29.1667 24.9999 29.1667H29.1666C29.7191 29.1667 30.249 28.9472 30.6397 28.5565C31.0304 28.1658 31.2499 27.6359 31.2499 27.0833C31.2499 26.5308 31.0304 26.0009 30.6397 25.6102C30.249 25.2195 29.7191 25 29.1666 25H24.9999ZM20.8332 16.6667C20.2807 16.6667 19.7508 16.8862 19.3601 17.2769C18.9694 17.6676 18.7499 18.1975 18.7499 18.75C18.7499 19.3025 18.9694 19.8324 19.3601 20.2231C19.7508 20.6138 20.2807 20.8333 20.8332 20.8333H29.1666C29.7191 20.8333 30.249 20.6138 30.6397 20.2231C31.0304 19.8324 31.2499 19.3025 31.2499 18.75C31.2499 18.1975 31.0304 17.6676 30.6397 17.2769C30.249 16.8862 29.7191 16.6667 29.1666 16.6667H20.8332ZM39.5833 10.4167C40.0935 10.4167 40.586 10.6041 40.9674 10.9432C41.3487 11.2822 41.5923 11.7495 41.652 12.2563L41.6666 12.5V14.5833H39.5833V10.4167Z" fill="white"/>
</g>
<defs>
<clipPath id="clip0_4_14">
<rect width="50" height="50" fill="white" transform="matrix(-1 0 0 1 50 0)"/>
</clipPath>
</defs>
</svg>
