<svg width="50" height="50" viewBox="0 0 50 50" fill="none" xmlns="http://www.w3.org/2000/svg">
<path d="M30.0813 15.8438C26.0701 16.4872 22.4171 18.5324 19.7719 21.6156C18.1035 21.1946 16.5999 20.2826 15.4555 18.9976C14.3112 17.7127 13.5787 16.1139 13.353 14.4081C13.1272 12.7023 13.4185 10.968 14.1892 9.4296C14.9599 7.89118 16.1745 6.61943 17.6758 5.77886C19.1772 4.93829 20.8963 4.56759 22.6106 4.71472C24.325 4.86185 25.9558 5.52004 27.292 6.60413C28.6281 7.68823 29.6083 9.14834 30.1056 10.7956C30.6028 12.4428 30.5944 14.2014 30.0813 15.8438ZM17.5 25C16.3 27.3437 15.625 30 15.625 32.8125C15.625 36.9062 17.0563 40.6625 19.4438 43.6156C11.1094 42.6656 6.25 36.8844 6.25 31.25V29.6875C6.25 28.4443 6.74386 27.252 7.62294 26.3729C8.50201 25.4939 9.6943 25 10.9375 25H17.5ZM20.7344 31C21.5414 30.7936 22.2989 30.428 22.9626 29.9246C23.6262 29.4212 24.1826 28.7903 24.5989 28.0688C25.0152 27.3474 25.2831 26.55 25.3869 25.7235C25.4907 24.8971 25.4282 24.0582 25.2031 23.2562L24.7156 21.5156C25.5094 20.9063 26.3719 20.3844 27.2844 19.9625L28.3375 21.0812C28.9216 21.701 29.6261 22.1948 30.4079 22.5324C31.1896 22.87 32.0322 23.0443 32.8837 23.0446C33.7353 23.0449 34.5779 22.8712 35.3599 22.5341C36.1419 22.197 36.8468 21.7037 37.4313 21.0844L38.4469 20.0094C39.375 20.4469 40.25 20.9937 41.0531 21.6281L40.6594 22.95C40.4156 23.7657 40.3411 24.6227 40.4403 25.4682C40.5396 26.3138 40.8105 27.1302 41.2366 27.8673C41.6626 28.6044 42.2348 29.2467 42.9179 29.7547C43.6011 30.2628 44.3809 30.6259 45.2094 30.8219L46.3031 31.0781C46.4285 32.1332 46.439 33.1989 46.3344 34.2562L44.8938 34.625C44.0871 34.8314 43.3299 35.197 42.6665 35.7001C42.0031 36.2033 41.4469 36.8339 41.0306 37.555C40.6143 38.2761 40.3463 39.0731 40.2423 39.8992C40.1383 40.7253 40.2004 41.5638 40.425 42.3656L40.9094 44.1062C40.1132 44.7183 39.2517 45.2402 38.3406 45.6625L37.2875 44.5437C36.7037 43.9238 35.9993 43.4298 35.2177 43.0919C34.436 42.754 33.5935 42.5794 32.742 42.5788C31.8904 42.5782 31.0477 42.7516 30.2656 43.0885C29.4835 43.4253 28.7784 43.9184 28.1938 44.5375L27.1813 45.6125C26.2528 45.1739 25.3773 44.6308 24.5719 43.9937L24.9656 42.675C25.2099 41.8591 25.2848 41.0018 25.1858 40.1559C25.0868 39.31 24.816 38.4932 24.3899 37.7557C23.9638 37.0183 23.3914 36.3757 22.708 35.8674C22.0246 35.3591 21.2445 34.9959 20.4156 34.8L19.3219 34.5437C19.1968 33.4896 19.1863 32.4251 19.2906 31.3687L20.7344 31ZM35.9375 32.8125C35.9375 31.9837 35.6083 31.1888 35.0222 30.6028C34.4362 30.0167 33.6413 29.6875 32.8125 29.6875C31.9837 29.6875 31.1889 30.0167 30.6028 30.6028C30.0168 31.1888 29.6875 31.9837 29.6875 32.8125C29.6875 33.6413 30.0168 34.4361 30.6028 35.0222C31.1889 35.6083 31.9837 35.9375 32.8125 35.9375C33.6413 35.9375 34.4362 35.6083 35.0222 35.0222C35.6083 34.4361 35.9375 33.6413 35.9375 32.8125Z" fill="black"/>
</svg>
