<svg width="178" height="52" viewBox="0 0 178 52" fill="none" xmlns="http://www.w3.org/2000/svg">
<rect x="0.5" y="0.5" width="51" height="51" rx="25.5" fill="black"/>
<g clip-path="url(#clip0_3_36)">
<rect width="25" height="25" transform="translate(14 14)" fill="black"/>
<mask id="mask0_3_36" style="mask-type:luminance" maskUnits="userSpaceOnUse" x="14" y="14" width="25" height="25">
<path d="M14 14H39V39H14V14Z" fill="white"/>
</mask>
<g mask="url(#mask0_3_36)">
<path fill-rule="evenodd" clip-rule="evenodd" d="M14 26.5698C14 32.7844 18.5135 37.9521 24.4167 39V29.9719H21.2917V26.5H24.4167V23.7219C24.4167 20.5969 26.4302 18.8615 29.2781 18.8615C30.1802 18.8615 31.1531 19 32.0552 19.1385V22.3333H30.4583C28.9302 22.3333 28.5833 23.0969 28.5833 24.0698V26.5H31.9167L31.3615 29.9719H28.5833V39C34.4865 37.9521 39 32.7854 39 26.5698C39 19.6562 33.375 14 26.5 14C19.625 14 14 19.6562 14 26.5698Z" fill="#FF7F00"/>
</g>
</g>
<rect x="0.5" y="0.5" width="51" height="51" rx="25.5" stroke="#FF7F00"/>
<rect x="42.5" y="0.5" width="51" height="51" rx="25.5" fill="black"/>
<rect x="53" y="11" width="30" height="30" rx="15" fill="#FF7F00"/>
<path fill-rule="evenodd" clip-rule="evenodd" d="M74.483 33.79V33.788L74.501 33.745L77.5 18.625V18.577C77.5 18.2 77.36 17.871 77.058 17.674C76.793 17.501 76.488 17.489 76.274 17.505C76.0748 17.523 75.8782 17.5633 75.688 17.625C75.6068 17.6512 75.5268 17.6805 75.448 17.713L75.435 17.718L58.715 24.277L58.71 24.279C58.6591 24.2964 58.6094 24.3167 58.561 24.34C58.4421 24.3934 58.328 24.457 58.22 24.53C58.005 24.678 57.596 25.026 57.665 25.578C57.722 26.036 58.037 26.326 58.25 26.477C58.3757 26.5651 58.5109 26.6389 58.653 26.697L58.685 26.711L58.695 26.714L58.702 26.717L61.628 27.702C61.618 27.885 61.636 28.072 61.685 28.257L63.15 33.816C63.23 34.119 63.4029 34.3894 63.6445 34.589C63.886 34.7887 64.1841 34.9078 64.4967 34.9294C64.8094 34.951 65.121 34.8741 65.3877 34.7096C65.6545 34.5451 65.863 34.3011 65.984 34.012L68.272 31.566L72.201 34.578L72.257 34.602C72.614 34.758 72.947 34.807 73.252 34.766C73.557 34.724 73.799 34.596 73.981 34.451C74.1915 34.2803 74.3593 34.0629 74.471 33.816L74.479 33.799L74.482 33.793L74.483 33.79ZM63.135 27.875C63.1187 27.8133 63.1226 27.7481 63.146 27.6887C63.1694 27.6294 63.211 27.579 63.265 27.545L73.186 21.245C73.186 21.245 73.77 20.89 73.749 21.245C73.749 21.245 73.853 21.307 73.54 21.598C73.244 21.875 66.469 28.416 65.783 29.078C65.7448 29.115 65.7181 29.1622 65.706 29.214L64.6 33.434L63.135 27.874V27.875Z" fill="black"/>
<rect x="42.5" y="0.5" width="51" height="51" rx="25.5" stroke="#FF7F00"/>
<rect x="84.5" y="0.5" width="51" height="51" rx="25.5" fill="black"/>
<rect x="95" y="11" width="30" height="30" rx="15" fill="#FF7F00"/>
<path d="M112.241 29.0425L113.791 27.4919C113.999 27.2856 114.264 27.1444 114.551 27.0855C114.838 27.0265 115.137 27.0522 115.41 27.1596L117.299 27.9141C117.575 28.0262 117.812 28.2175 117.979 28.4638C118.146 28.7102 118.237 29.0007 118.24 29.2986V32.7598C118.238 32.9624 118.196 33.1627 118.115 33.3485C118.034 33.5342 117.916 33.7017 117.769 33.8407C117.621 33.9798 117.447 34.0876 117.257 34.1576C117.067 34.2276 116.865 34.2583 116.662 34.2481C103.425 33.4243 100.754 22.2101 100.249 17.9183C100.226 17.7075 100.247 17.4942 100.312 17.2923C100.377 17.0904 100.484 16.9046 100.626 16.747C100.768 16.5894 100.941 16.4637 101.135 16.378C101.329 16.2923 101.539 16.2487 101.751 16.25H105.093C105.391 16.2509 105.682 16.341 105.929 16.5088C106.176 16.6766 106.366 16.9143 106.477 17.1915L107.231 19.0813C107.342 19.3534 107.37 19.6521 107.312 19.9402C107.255 20.2283 107.113 20.4929 106.906 20.7011L105.356 22.2517C105.356 22.2517 106.248 28.2949 112.241 29.0425Z" fill="black"/>
<rect x="84.5" y="0.5" width="51" height="51" rx="25.5" stroke="#FF7F00"/>
<rect x="126.5" y="0.5" width="51" height="51" rx="25.5" fill="black"/>
<g clip-path="url(#clip1_3_36)">
<rect width="25" height="25" transform="translate(140 14)" fill="#1E1B1B"/>
<path fill-rule="evenodd" clip-rule="evenodd" d="M161.304 35.3021H157.596V29.5C157.596 28.1167 157.573 26.3375 155.669 26.3375C153.741 26.3375 153.446 27.8448 153.446 29.4021V35.3021H149.742V23.3719H153.297V25.0031H153.348C153.843 24.0656 155.052 23.076 156.855 23.076C160.61 23.076 161.303 25.5458 161.303 28.7594L161.304 35.3021ZM145.561 21.7427C144.991 21.7427 144.444 21.5161 144.04 21.1127C143.637 20.7093 143.41 20.1622 143.41 19.5917C143.41 19.0212 143.637 18.474 144.04 18.0707C144.444 17.6673 144.991 17.4406 145.561 17.4406C146.132 17.4406 146.679 17.6673 147.082 18.0707C147.486 18.474 147.712 19.0212 147.712 19.5917C147.712 20.1622 147.486 20.7093 147.082 21.1127C146.679 21.5161 146.132 21.7427 145.561 21.7427ZM147.417 35.3021H143.706V23.3719H147.417V35.3021ZM163.958 14H141.042C140.765 14 140.5 14.1097 140.305 14.3051C140.11 14.5004 140 14.7654 140 15.0417V37.9583C140 38.2346 140.11 38.4996 140.305 38.6949C140.5 38.8903 140.765 39 141.042 39H163.958C164.235 39 164.5 38.8903 164.695 38.6949C164.89 38.4996 165 38.2346 165 37.9583V15.0417C165 14.7654 164.89 14.5004 164.695 14.3051C164.5 14.1097 164.235 14 163.958 14Z" fill="#FF7F00"/>
</g>
<rect x="126.5" y="0.5" width="51" height="51" rx="25.5" stroke="#FF7F00"/>
<defs>
<clipPath id="clip0_3_36">
<rect width="25" height="25" fill="white" transform="translate(14 14)"/>
</clipPath>
<clipPath id="clip1_3_36">
<rect width="25" height="25" fill="white" transform="translate(140 14)"/>
</clipPath>
</defs>
</svg>
