<svg width="134" height="134" viewBox="0 0 134 134" fill="none" xmlns="http://www.w3.org/2000/svg">
<path d="M80.2673 21.8698L92.6841 13.6663L94.0121 28.489L94.3858 32.6593L98.5347 32.0956L113.281 30.092L108.046 44.0229L106.574 47.9424L110.556 49.2346L124.712 53.8277L113.951 64.1077L110.923 67L113.951 69.8923L124.712 80.1723L110.556 84.7654L106.574 86.0576L108.046 89.9771L113.281 103.908L98.5347 101.904L94.3858 101.341L94.0121 105.511L92.6841 120.334L80.2673 112.13L76.7739 109.822L74.6278 113.417L67 126.196L59.3722 113.417L57.2261 109.822L53.7327 112.13L41.3159 120.334L39.9879 105.511L39.6142 101.341L35.4653 101.904L20.7188 103.908L25.9536 89.9771L27.4264 86.0576L23.4438 84.7654L9.28827 80.1723L20.0491 69.8923L23.0766 67L20.0491 64.1077L9.28827 53.8277L23.4438 49.2346L27.4264 47.9424L25.9536 44.0229L20.7188 30.092L35.4653 32.0956L39.6142 32.6593L39.9879 28.489L41.3159 13.6663L53.7327 21.8698L57.2261 24.1779L59.3722 20.5826L67 7.80411L74.6278 20.5826L76.7739 24.1779L80.2673 21.8698Z" fill="#FF8003" stroke="white" stroke-width="8"/>
<path d="M40.3396 60.08C39.9022 60.08 39.4836 60.0187 39.0836 59.896C38.6836 59.768 38.3662 59.6053 38.1316 59.408L38.4916 58.6C38.7156 58.776 38.9929 58.9227 39.3236 59.04C39.6542 59.1573 39.9929 59.216 40.3396 59.216C40.6329 59.216 40.8702 59.184 41.0516 59.12C41.2329 59.056 41.3662 58.9707 41.4516 58.864C41.5369 58.752 41.5796 58.6267 41.5796 58.488C41.5796 58.3173 41.5182 58.1813 41.3956 58.08C41.2729 57.9733 41.1129 57.8907 40.9156 57.832C40.7236 57.768 40.5076 57.7093 40.2676 57.656C40.0329 57.6027 39.7956 57.5413 39.5556 57.472C39.3209 57.3973 39.1049 57.304 38.9076 57.192C38.7156 57.0747 38.5582 56.92 38.4356 56.728C38.3129 56.536 38.2516 56.2907 38.2516 55.992C38.2516 55.688 38.3316 55.4107 38.4916 55.16C38.6569 54.904 38.9049 54.7013 39.2356 54.552C39.5716 54.3973 39.9956 54.32 40.5076 54.32C40.8436 54.32 41.1769 54.3627 41.5076 54.448C41.8382 54.5333 42.1262 54.656 42.3716 54.816L42.0436 55.624C41.7929 55.4747 41.5342 55.3653 41.2676 55.296C41.0009 55.2213 40.7449 55.184 40.4996 55.184C40.2116 55.184 39.9769 55.2187 39.7956 55.288C39.6196 55.3573 39.4889 55.448 39.4036 55.56C39.3236 55.672 39.2836 55.8 39.2836 55.944C39.2836 56.1147 39.3422 56.2533 39.4596 56.36C39.5822 56.4613 39.7396 56.5413 39.9316 56.6C40.1289 56.6587 40.3476 56.7173 40.5876 56.776C40.8276 56.8293 41.0649 56.8907 41.2996 56.96C41.5396 57.0293 41.7556 57.12 41.9476 57.232C42.1449 57.344 42.3022 57.496 42.4196 57.688C42.5422 57.88 42.6036 58.1227 42.6036 58.416C42.6036 58.7147 42.5209 58.992 42.3556 59.248C42.1956 59.4987 41.9476 59.7013 41.6116 59.856C41.2756 60.0053 40.8516 60.08 40.3396 60.08ZM47.5708 54.4H48.6108V60H47.5708V54.4ZM44.6748 60H43.6348V54.4H44.6748V60ZM47.6508 57.6H44.5868V56.712H47.6508V57.6ZM49.3194 60L51.8394 54.4H52.8634L55.3914 60H54.3034L52.1354 54.952H52.5514L50.3914 60H49.3194ZM50.4794 58.704L50.7594 57.888H53.7834L54.0634 58.704H50.4794ZM56.1036 60V54.4H58.4076C58.9036 54.4 59.3276 54.48 59.6796 54.64C60.0369 54.8 60.3116 55.0293 60.5036 55.328C60.6956 55.6267 60.7916 55.9813 60.7916 56.392C60.7916 56.8027 60.6956 57.1573 60.5036 57.456C60.3116 57.7547 60.0369 57.984 59.6796 58.144C59.3276 58.304 58.9036 58.384 58.4076 58.384H56.6796L57.1436 57.896V60H56.1036ZM57.1436 58.008L56.6796 57.504H58.3596C58.8182 57.504 59.1622 57.408 59.3916 57.216C59.6262 57.0187 59.7436 56.744 59.7436 56.392C59.7436 56.0347 59.6262 55.76 59.3916 55.568C59.1622 55.376 58.8182 55.28 58.3596 55.28H56.6796L57.1436 54.768V58.008ZM61.8301 60V54.4H62.8701V60H61.8301ZM64.3848 60V54.4H65.2408L68.7528 58.712H68.3288V54.4H69.3608V60H68.5048L64.9928 55.688H65.4168V60H64.3848ZM73.4774 60.08C73.04 60.08 72.6374 60.0107 72.2694 59.872C71.9067 59.728 71.5894 59.528 71.3174 59.272C71.0454 59.0107 70.8347 58.704 70.6854 58.352C70.536 58 70.4614 57.616 70.4614 57.2C70.4614 56.784 70.536 56.4 70.6854 56.048C70.8347 55.696 71.0454 55.392 71.3174 55.136C71.5947 54.8747 71.9174 54.6747 72.2854 54.536C72.6534 54.392 73.056 54.32 73.4934 54.32C73.968 54.32 74.3947 54.3973 74.7734 54.552C75.1574 54.7067 75.48 54.9333 75.7414 55.232L75.0854 55.872C74.8667 55.6533 74.6294 55.4933 74.3734 55.392C74.1227 55.2853 73.8454 55.232 73.5414 55.232C73.248 55.232 72.976 55.28 72.7254 55.376C72.4747 55.472 72.2587 55.608 72.0774 55.784C71.896 55.96 71.7547 56.168 71.6534 56.408C71.5574 56.648 71.5094 56.912 71.5094 57.2C71.5094 57.4827 71.5574 57.744 71.6534 57.984C71.7547 58.224 71.896 58.4347 72.0774 58.616C72.2587 58.792 72.472 58.928 72.7174 59.024C72.9627 59.12 73.2347 59.168 73.5334 59.168C73.8107 59.168 74.0774 59.1253 74.3334 59.04C74.5947 58.9493 74.8427 58.8 75.0774 58.592L75.6694 59.368C75.376 59.6027 75.0347 59.7813 74.6454 59.904C74.2614 60.0213 73.872 60.08 73.4774 60.08ZM74.6854 59.232V57.136H75.6694V59.368L74.6854 59.232ZM80.388 60V55.28H78.532V54.4H83.284V55.28H81.428V60H80.388ZM88.0005 54.4H89.0405V60H88.0005V54.4ZM85.1045 60H84.0645V54.4H85.1045V60ZM88.0805 57.6H85.0165V56.712H88.0805V57.6ZM91.5011 56.728H94.2851V57.584H91.5011V56.728ZM91.5811 59.128H94.7411V60H90.5411V54.4H94.6291V55.272H91.5811V59.128ZM44.4149 66.976H47.2069V67.856H44.4149V66.976ZM44.5029 70H43.4629V64.4H47.5509V65.272H44.5029V70ZM50.9647 70.08C50.1967 70.08 49.594 69.864 49.1567 69.432C48.7247 69 48.5087 68.376 48.5087 67.56V64.4H49.5487V67.52C49.5487 68.096 49.6714 68.5147 49.9167 68.776C50.1674 69.0373 50.5194 69.168 50.9727 69.168C51.426 69.168 51.7754 69.0373 52.0207 68.776C52.266 68.5147 52.3887 68.096 52.3887 67.52V64.4H53.4127V67.56C53.4127 68.376 53.194 69 52.7567 69.432C52.3247 69.864 51.7274 70.08 50.9647 70.08ZM55.9036 70V65.28H54.0476V64.4H58.7996V65.28H56.9436V70H55.9036ZM61.8866 70.08C61.1186 70.08 60.5159 69.864 60.0786 69.432C59.6466 69 59.4306 68.376 59.4306 67.56V64.4H60.4706V67.52C60.4706 68.096 60.5932 68.5147 60.8386 68.776C61.0892 69.0373 61.4412 69.168 61.8946 69.168C62.3479 69.168 62.6972 69.0373 62.9426 68.776C63.1879 68.5147 63.3106 68.096 63.3106 67.52V64.4H64.3346V67.56C64.3346 68.376 64.1159 69 63.6786 69.432C63.2466 69.864 62.6492 70.08 61.8866 70.08ZM65.7911 70V64.4H68.0951C68.5911 64.4 69.0151 64.48 69.3671 64.64C69.7244 64.8 69.9991 65.0293 70.1911 65.328C70.3831 65.6267 70.4791 65.9813 70.4791 66.392C70.4791 66.8027 70.3831 67.1573 70.1911 67.456C69.9991 67.7493 69.7244 67.976 69.3671 68.136C69.0151 68.2907 68.5911 68.368 68.0951 68.368H66.3671L66.8311 67.896V70H65.7911ZM69.4551 70L68.0391 67.968H69.1511L70.5751 70H69.4551ZM66.8311 68.008L66.3671 67.512H68.0471C68.5057 67.512 68.8497 67.4133 69.0791 67.216C69.3137 67.0187 69.4311 66.744 69.4311 66.392C69.4311 66.0347 69.3137 65.76 69.0791 65.568C68.8497 65.376 68.5057 65.28 68.0471 65.28H66.3671L66.8311 64.768V68.008ZM72.6026 66.728H75.3866V67.584H72.6026V66.728ZM72.6826 69.128H75.8426V70H71.6426V64.4H75.7306V65.272H72.6826V69.128ZM81.8369 70.08C81.3996 70.08 80.9969 70.008 80.6289 69.864C80.2609 69.72 79.9409 69.52 79.6689 69.264C79.3969 69.0027 79.1863 68.6987 79.0369 68.352C78.8876 68 78.8129 67.616 78.8129 67.2C78.8129 66.784 78.8876 66.4027 79.0369 66.056C79.1863 65.704 79.3969 65.4 79.6689 65.144C79.9409 64.8827 80.2609 64.68 80.6289 64.536C80.9969 64.392 81.3969 64.32 81.8289 64.32C82.2663 64.32 82.6663 64.392 83.0289 64.536C83.3969 64.68 83.7169 64.8827 83.9889 65.144C84.2609 65.4 84.4716 65.704 84.6209 66.056C84.7703 66.4027 84.8449 66.784 84.8449 67.2C84.8449 67.616 84.7703 68 84.6209 68.352C84.4716 68.704 84.2609 69.008 83.9889 69.264C83.7169 69.52 83.3969 69.72 83.0289 69.864C82.6663 70.008 82.2689 70.08 81.8369 70.08ZM81.8289 69.168C82.1116 69.168 82.3729 69.12 82.6129 69.024C82.8529 68.928 83.0609 68.792 83.2369 68.616C83.4129 68.4347 83.5489 68.2267 83.6449 67.992C83.7463 67.752 83.7969 67.488 83.7969 67.2C83.7969 66.912 83.7463 66.6507 83.6449 66.416C83.5489 66.176 83.4129 65.968 83.2369 65.792C83.0609 65.6107 82.8529 65.472 82.6129 65.376C82.3729 65.28 82.1116 65.232 81.8289 65.232C81.5463 65.232 81.2849 65.28 81.0449 65.376C80.8103 65.472 80.6023 65.6107 80.4209 65.792C80.2449 65.968 80.1063 66.176 80.0049 66.416C79.9089 66.6507 79.8609 66.912 79.8609 67.2C79.8609 67.4827 79.9089 67.744 80.0049 67.984C80.1063 68.224 80.2449 68.4347 80.4209 68.616C80.5969 68.792 80.8049 68.928 81.0449 69.024C81.2849 69.12 81.5463 69.168 81.8289 69.168ZM86.8993 66.976H89.6913V67.856H86.8993V66.976ZM86.9873 70H85.9473V64.4H90.0353V65.272H86.9873V70ZM40.1453 80.08C39.708 80.08 39.3053 80.0107 38.9373 79.872C38.5747 79.728 38.2573 79.528 37.9853 79.272C37.7133 79.0107 37.5027 78.704 37.3533 78.352C37.204 78 37.1293 77.616 37.1293 77.2C37.1293 76.784 37.204 76.4 37.3533 76.048C37.5027 75.696 37.7133 75.392 37.9853 75.136C38.2627 74.8747 38.5853 74.6747 38.9533 74.536C39.3213 74.392 39.724 74.32 40.1613 74.32C40.636 74.32 41.0627 74.3973 41.4413 74.552C41.8253 74.7067 42.148 74.9333 42.4093 75.232L41.7533 75.872C41.5347 75.6533 41.2973 75.4933 41.0413 75.392C40.7907 75.2853 40.5133 75.232 40.2093 75.232C39.916 75.232 39.644 75.28 39.3933 75.376C39.1427 75.472 38.9267 75.608 38.7453 75.784C38.564 75.96 38.4227 76.168 38.3213 76.408C38.2253 76.648 38.1773 76.912 38.1773 77.2C38.1773 77.4827 38.2253 77.744 38.3213 77.984C38.4227 78.224 38.564 78.4347 38.7453 78.616C38.9267 78.792 39.14 78.928 39.3853 79.024C39.6307 79.12 39.9027 79.168 40.2013 79.168C40.4787 79.168 40.7453 79.1253 41.0013 79.04C41.2627 78.9493 41.5107 78.8 41.7453 78.592L42.3373 79.368C42.044 79.6027 41.7027 79.7813 41.3133 79.904C40.9293 80.0213 40.54 80.08 40.1453 80.08ZM41.3533 79.232V77.136H42.3373V79.368L41.3533 79.232ZM43.709 80V74.4H44.749V79.12H47.677V80H43.709ZM51.0205 80.08C50.5832 80.08 50.1805 80.008 49.8125 79.864C49.4445 79.72 49.1245 79.52 48.8525 79.264C48.5805 79.0027 48.3699 78.6987 48.2205 78.352C48.0712 78 47.9965 77.616 47.9965 77.2C47.9965 76.784 48.0712 76.4027 48.2205 76.056C48.3699 75.704 48.5805 75.4 48.8525 75.144C49.1245 74.8827 49.4445 74.68 49.8125 74.536C50.1805 74.392 50.5805 74.32 51.0125 74.32C51.4499 74.32 51.8499 74.392 52.2125 74.536C52.5805 74.68 52.9005 74.8827 53.1725 75.144C53.4445 75.4 53.6552 75.704 53.8045 76.056C53.9539 76.4027 54.0285 76.784 54.0285 77.2C54.0285 77.616 53.9539 78 53.8045 78.352C53.6552 78.704 53.4445 79.008 53.1725 79.264C52.9005 79.52 52.5805 79.72 52.2125 79.864C51.8499 80.008 51.4525 80.08 51.0205 80.08ZM51.0125 79.168C51.2952 79.168 51.5565 79.12 51.7965 79.024C52.0365 78.928 52.2445 78.792 52.4205 78.616C52.5965 78.4347 52.7325 78.2267 52.8285 77.992C52.9299 77.752 52.9805 77.488 52.9805 77.2C52.9805 76.912 52.9299 76.6507 52.8285 76.416C52.7325 76.176 52.5965 75.968 52.4205 75.792C52.2445 75.6107 52.0365 75.472 51.7965 75.376C51.5565 75.28 51.2952 75.232 51.0125 75.232C50.7299 75.232 50.4685 75.28 50.2285 75.376C49.9939 75.472 49.7859 75.6107 49.6045 75.792C49.4285 75.968 49.2899 76.176 49.1885 76.416C49.0925 76.6507 49.0445 76.912 49.0445 77.2C49.0445 77.4827 49.0925 77.744 49.1885 77.984C49.2899 78.224 49.4285 78.4347 49.6045 78.616C49.7805 78.792 49.9885 78.928 50.2285 79.024C50.4685 79.12 50.7299 79.168 51.0125 79.168ZM55.1309 80V74.4H57.7549C58.4269 74.4 58.9389 74.5333 59.2909 74.8C59.6429 75.0613 59.8189 75.4133 59.8189 75.856C59.8189 76.1547 59.7496 76.4107 59.6109 76.624C59.4722 76.832 59.2856 76.9947 59.0509 77.112C58.8216 77.224 58.5709 77.28 58.2989 77.28L58.4429 76.992C58.7576 76.992 59.0402 77.0507 59.2909 77.168C59.5416 77.28 59.7389 77.4453 59.8829 77.664C60.0322 77.8827 60.1069 78.1547 60.1069 78.48C60.1069 78.96 59.9229 79.3333 59.5549 79.6C59.1869 79.8667 58.6402 80 57.9149 80H55.1309ZM56.1709 79.184H57.8509C58.2402 79.184 58.5389 79.12 58.7469 78.992C58.9549 78.864 59.0589 78.6587 59.0589 78.376C59.0589 78.0987 58.9549 77.896 58.7469 77.768C58.5389 77.6347 58.2402 77.568 57.8509 77.568H56.0909V76.76H57.6429C58.0056 76.76 58.2829 76.696 58.4749 76.568C58.6722 76.44 58.7709 76.248 58.7709 75.992C58.7709 75.7307 58.6722 75.536 58.4749 75.408C58.2829 75.28 58.0056 75.216 57.6429 75.216H56.1709V79.184ZM60.4248 80L62.9448 74.4H63.9688L66.4968 80H65.4088L63.2408 74.952H63.6568L61.4968 80H60.4248ZM61.5848 78.704L61.8648 77.888H64.8888L65.1688 78.704H61.5848ZM67.209 80V74.4H68.249V79.12H71.177V80H67.209ZM74.209 80V74.4H76.657C77.265 74.4 77.7984 74.5173 78.257 74.752C78.7157 74.9867 79.073 75.312 79.329 75.728C79.585 76.144 79.713 76.6347 79.713 77.2C79.713 77.76 79.585 78.2507 79.329 78.672C79.073 79.088 78.7157 79.4133 78.257 79.648C77.7984 79.8827 77.265 80 76.657 80H74.209ZM75.249 79.12H76.609C77.0304 79.12 77.393 79.04 77.697 78.88C78.0064 78.72 78.2437 78.496 78.409 78.208C78.5797 77.92 78.665 77.584 78.665 77.2C78.665 76.8107 78.5797 76.4747 78.409 76.192C78.2437 75.904 78.0064 75.68 77.697 75.52C77.393 75.36 77.0304 75.28 76.609 75.28H75.249V79.12ZM79.9483 80L82.4683 74.4H83.4923L86.0203 80H84.9323L82.7643 74.952H83.1803L81.0203 80H79.9483ZM81.1083 78.704L81.3883 77.888H84.4123L84.6923 78.704H81.1083ZM87.5872 80V75.28H85.7312V74.4H90.4832V75.28H88.6272V80H87.5872ZM90.1905 80L92.7105 74.4H93.7345L96.2625 80H95.1745L93.0065 74.952H93.4225L91.2625 80H90.1905ZM91.3505 78.704L91.6305 77.888H94.6545L94.9345 78.704H91.3505Z" fill="black"/>
</svg>
