<svg width="431" height="33" viewBox="0 0 431 33" fill="none" xmlns="http://www.w3.org/2000/svg">
<path d="M0.156 10L3.648 5.236V6.16L0.348 1.6H1.716L4.332 5.188L3.792 5.2L6.396 1.6H7.704L4.428 6.088V5.224L7.92 10H6.54L3.756 6.172H4.284L1.536 10H0.156ZM10.9989 10V6.784L11.2749 7.528L7.66294 1.6H8.94694L11.9829 6.604H11.2869L14.3349 1.6H15.5229L11.9229 7.528L12.1869 6.784V10H10.9989ZM20.1692 10.096C19.5292 10.096 18.9332 9.988 18.3812 9.772C17.8372 9.556 17.3652 9.256 16.9652 8.872C16.5652 8.48 16.2532 8.024 16.0292 7.504C15.8052 6.984 15.6932 6.416 15.6932 5.8C15.6932 5.184 15.8052 4.616 16.0292 4.096C16.2532 3.576 16.5652 3.124 16.9652 2.74C17.3652 2.348 17.8372 2.044 18.3812 1.828C18.9252 1.612 19.5212 1.504 20.1692 1.504C20.8092 1.504 21.3972 1.612 21.9332 1.828C22.4772 2.036 22.9492 2.336 23.3492 2.728C23.7572 3.112 24.0692 3.564 24.2852 4.084C24.5092 4.604 24.6212 5.176 24.6212 5.8C24.6212 6.424 24.5092 6.996 24.2852 7.516C24.0692 8.036 23.7572 8.492 23.3492 8.884C22.9492 9.268 22.4772 9.568 21.9332 9.784C21.3972 9.992 20.8092 10.096 20.1692 10.096ZM20.1692 9.028C20.6332 9.028 21.0612 8.948 21.4532 8.788C21.8532 8.628 22.1972 8.404 22.4852 8.116C22.7812 7.82 23.0092 7.476 23.1692 7.084C23.3372 6.692 23.4212 6.264 23.4212 5.8C23.4212 5.336 23.3372 4.908 23.1692 4.516C23.0092 4.124 22.7812 3.784 22.4852 3.496C22.1972 3.2 21.8532 2.972 21.4532 2.812C21.0612 2.652 20.6332 2.572 20.1692 2.572C19.6972 2.572 19.2612 2.652 18.8612 2.812C18.4692 2.972 18.1252 3.2 17.8292 3.496C17.5332 3.784 17.3012 4.124 17.1332 4.516C16.9732 4.908 16.8932 5.336 16.8932 5.8C16.8932 6.264 16.9732 6.692 17.1332 7.084C17.3012 7.476 17.5332 7.82 17.8292 8.116C18.1252 8.404 18.4692 8.628 18.8612 8.788C19.2612 8.948 19.6972 9.028 20.1692 9.028ZM29.51 10V3.64H30.662V10H29.51ZM30.086 2.416C29.862 2.416 29.674 2.344 29.522 2.2C29.378 2.056 29.306 1.88 29.306 1.672C29.306 1.456 29.378 1.276 29.522 1.132C29.674 0.988 29.862 0.916 30.086 0.916C30.31 0.916 30.494 0.988 30.638 1.132C30.79 1.268 30.866 1.44 30.866 1.648C30.866 1.864 30.794 2.048 30.65 2.2C30.506 2.344 30.318 2.416 30.086 2.416ZM34.6855 10.072C34.1575 10.072 33.6535 10 33.1735 9.856C32.7015 9.712 32.3295 9.536 32.0575 9.328L32.5375 8.416C32.8095 8.6 33.1455 8.756 33.5455 8.884C33.9455 9.012 34.3535 9.076 34.7695 9.076C35.3055 9.076 35.6895 9 35.9215 8.848C36.1615 8.696 36.2815 8.484 36.2815 8.212C36.2815 8.012 36.2095 7.856 36.0655 7.744C35.9215 7.632 35.7295 7.548 35.4895 7.492C35.2575 7.436 34.9975 7.388 34.7095 7.348C34.4215 7.3 34.1335 7.244 33.8455 7.18C33.5575 7.108 33.2935 7.012 33.0535 6.892C32.8135 6.764 32.6215 6.592 32.4775 6.376C32.3335 6.152 32.2615 5.856 32.2615 5.488C32.2615 5.104 32.3695 4.768 32.5855 4.48C32.8015 4.192 33.1055 3.972 33.4975 3.82C33.8975 3.66 34.3695 3.58 34.9135 3.58C35.3295 3.58 35.7495 3.632 36.1735 3.736C36.6055 3.832 36.9575 3.972 37.2295 4.156L36.7375 5.068C36.4495 4.876 36.1495 4.744 35.8375 4.672C35.5255 4.6 35.2135 4.564 34.9015 4.564C34.3975 4.564 34.0215 4.648 33.7735 4.816C33.5255 4.976 33.4015 5.184 33.4015 5.44C33.4015 5.656 33.4735 5.824 33.6175 5.944C33.7695 6.056 33.9615 6.144 34.1935 6.208C34.4335 6.272 34.6975 6.328 34.9855 6.376C35.2735 6.416 35.5615 6.472 35.8495 6.544C36.1375 6.608 36.3975 6.7 36.6295 6.82C36.8695 6.94 37.0615 7.108 37.2055 7.324C37.3575 7.54 37.4335 7.828 37.4335 8.188C37.4335 8.572 37.3215 8.904 37.0975 9.184C36.8735 9.464 36.5575 9.684 36.1495 9.844C35.7415 9.996 35.2535 10.072 34.6855 10.072ZM46.0439 10V8.656L45.9839 8.404V6.112C45.9839 5.624 45.8399 5.248 45.5519 4.984C45.2719 4.712 44.8479 4.576 44.2799 4.576C43.9039 4.576 43.5359 4.64 43.1759 4.768C42.8159 4.888 42.5119 5.052 42.2639 5.26L41.7839 4.396C42.1119 4.132 42.5039 3.932 42.9599 3.796C43.4239 3.652 43.9079 3.58 44.4119 3.58C45.2839 3.58 45.9559 3.792 46.4279 4.216C46.8999 4.64 47.1359 5.288 47.1359 6.16V10H46.0439ZM43.9559 10.072C43.4839 10.072 43.0679 9.992 42.7079 9.832C42.3559 9.672 42.0839 9.452 41.8919 9.172C41.6999 8.884 41.6039 8.56 41.6039 8.2C41.6039 7.856 41.6839 7.544 41.8439 7.264C42.0119 6.984 42.2799 6.76 42.6479 6.592C43.0239 6.424 43.5279 6.34 44.1599 6.34H46.1759V7.168H44.2079C43.6319 7.168 43.2439 7.264 43.0439 7.456C42.8439 7.648 42.7439 7.88 42.7439 8.152C42.7439 8.464 42.8679 8.716 43.1159 8.908C43.3639 9.092 43.7079 9.184 44.1479 9.184C44.5799 9.184 44.9559 9.088 45.2759 8.896C45.6039 8.704 45.8399 8.424 45.9839 8.056L46.2119 8.848C46.0599 9.224 45.7919 9.524 45.4079 9.748C45.0239 9.964 44.5399 10.072 43.9559 10.072ZM54.6744 10.072C54.0344 10.072 53.5384 9.9 53.1864 9.556C52.8344 9.212 52.6584 8.72 52.6584 8.08V2.248H53.8104V8.032C53.8104 8.376 53.8944 8.64 54.0624 8.824C54.2384 9.008 54.4864 9.1 54.8064 9.1C55.1664 9.1 55.4664 9 55.7064 8.8L56.0664 9.628C55.8904 9.78 55.6784 9.892 55.4304 9.964C55.1904 10.036 54.9384 10.072 54.6744 10.072ZM51.5784 4.588V3.64H55.6344V4.588H51.5784ZM60.0803 10.072C59.4003 10.072 58.8003 9.932 58.2803 9.652C57.7683 9.372 57.3683 8.988 57.0803 8.5C56.8003 8.012 56.6603 7.452 56.6603 6.82C56.6603 6.188 56.7963 5.628 57.0683 5.14C57.3483 4.652 57.7283 4.272 58.2083 4C58.6963 3.72 59.2443 3.58 59.8523 3.58C60.4683 3.58 61.0123 3.716 61.4843 3.988C61.9563 4.26 62.3243 4.644 62.5883 5.14C62.8603 5.628 62.9963 6.2 62.9963 6.856C62.9963 6.904 62.9923 6.96 62.9843 7.024C62.9843 7.088 62.9803 7.148 62.9723 7.204H57.5603V6.376H62.3723L61.9043 6.664C61.9123 6.256 61.8283 5.892 61.6523 5.572C61.4763 5.252 61.2323 5.004 60.9203 4.828C60.6163 4.644 60.2603 4.552 59.8523 4.552C59.4523 4.552 59.0963 4.644 58.7843 4.828C58.4723 5.004 58.2283 5.256 58.0523 5.584C57.8763 5.904 57.7883 6.272 57.7883 6.688V6.88C57.7883 7.304 57.8843 7.684 58.0763 8.02C58.2763 8.348 58.5523 8.604 58.9043 8.788C59.2563 8.972 59.6603 9.064 60.1163 9.064C60.4923 9.064 60.8323 9 61.1363 8.872C61.4483 8.744 61.7203 8.552 61.9523 8.296L62.5883 9.04C62.3003 9.376 61.9403 9.632 61.5083 9.808C61.0843 9.984 60.6083 10.072 60.0803 10.072ZM67.3679 10.072C66.7199 10.072 66.1399 9.932 65.6279 9.652C65.1239 9.372 64.7279 8.988 64.4399 8.5C64.1519 8.012 64.0079 7.452 64.0079 6.82C64.0079 6.188 64.1519 5.628 64.4399 5.14C64.7279 4.652 65.1239 4.272 65.6279 4C66.1399 3.72 66.7199 3.58 67.3679 3.58C67.9439 3.58 68.4559 3.696 68.9039 3.928C69.3599 4.152 69.7119 4.488 69.9599 4.936L69.0839 5.5C68.8759 5.188 68.6199 4.96 68.3159 4.816C68.0199 4.664 67.6999 4.588 67.3559 4.588C66.9399 4.588 66.5679 4.68 66.2399 4.864C65.9119 5.048 65.6519 5.308 65.4599 5.644C65.2679 5.972 65.1719 6.364 65.1719 6.82C65.1719 7.276 65.2679 7.672 65.4599 8.008C65.6519 8.344 65.9119 8.604 66.2399 8.788C66.5679 8.972 66.9399 9.064 67.3559 9.064C67.6999 9.064 68.0199 8.992 68.3159 8.848C68.6199 8.696 68.8759 8.464 69.0839 8.152L69.9599 8.704C69.7119 9.144 69.3599 9.484 68.9039 9.724C68.4559 9.956 67.9439 10.072 67.3679 10.072ZM74.7653 3.58C75.2853 3.58 75.7413 3.68 76.1333 3.88C76.5333 4.08 76.8453 4.384 77.0693 4.792C77.2933 5.2 77.4053 5.716 77.4053 6.34V10H76.2533V6.472C76.2533 5.856 76.1013 5.392 75.7973 5.08C75.5013 4.768 75.0813 4.612 74.5373 4.612C74.1293 4.612 73.7733 4.692 73.4693 4.852C73.1653 5.012 72.9293 5.248 72.7613 5.56C72.6013 5.872 72.5213 6.26 72.5213 6.724V10H71.3693V1.096H72.5213V5.356L72.2933 4.9C72.5013 4.484 72.8213 4.16 73.2533 3.928C73.6853 3.696 74.1893 3.58 74.7653 3.58ZM82.9333 3.58C83.4533 3.58 83.9093 3.68 84.3013 3.88C84.7013 4.08 85.0133 4.384 85.2373 4.792C85.4613 5.2 85.5733 5.716 85.5733 6.34V10H84.4213V6.472C84.4213 5.856 84.2693 5.392 83.9653 5.08C83.6693 4.768 83.2493 4.612 82.7053 4.612C82.2973 4.612 81.9413 4.692 81.6373 4.852C81.3333 5.012 81.0973 5.248 80.9293 5.56C80.7693 5.872 80.6893 6.26 80.6893 6.724V10H79.5373V3.64H80.6413V5.356L80.4613 4.9C80.6693 4.484 80.9893 4.16 81.4213 3.928C81.8533 3.696 82.3573 3.58 82.9333 3.58ZM90.4293 10.072C89.7893 10.072 89.2213 9.932 88.7253 9.652C88.2293 9.372 87.8373 8.988 87.5493 8.5C87.2613 8.004 87.1173 7.444 87.1173 6.82C87.1173 6.188 87.2613 5.628 87.5493 5.14C87.8373 4.652 88.2293 4.272 88.7253 4C89.2213 3.72 89.7893 3.58 90.4293 3.58C91.0613 3.58 91.6253 3.72 92.1213 4C92.6253 4.272 93.0173 4.652 93.2973 5.14C93.5853 5.62 93.7293 6.18 93.7293 6.82C93.7293 7.452 93.5853 8.012 93.2973 8.5C93.0173 8.988 92.6253 9.372 92.1213 9.652C91.6253 9.932 91.0613 10.072 90.4293 10.072ZM90.4293 9.064C90.8373 9.064 91.2013 8.972 91.5213 8.788C91.8493 8.604 92.1053 8.344 92.2893 8.008C92.4733 7.664 92.5653 7.268 92.5653 6.82C92.5653 6.364 92.4733 5.972 92.2893 5.644C92.1053 5.308 91.8493 5.048 91.5213 4.864C91.2013 4.68 90.8373 4.588 90.4293 4.588C90.0213 4.588 89.6573 4.68 89.3373 4.864C89.0173 5.048 88.7613 5.308 88.5693 5.644C88.3773 5.972 88.2813 6.364 88.2813 6.82C88.2813 7.268 88.3773 7.664 88.5693 8.008C88.7613 8.344 89.0173 8.604 89.3373 8.788C89.6573 8.972 90.0213 9.064 90.4293 9.064ZM95.3225 10V1.096H96.4745V10H95.3225ZM101.398 10.072C100.758 10.072 100.19 9.932 99.694 9.652C99.198 9.372 98.806 8.988 98.518 8.5C98.23 8.004 98.086 7.444 98.086 6.82C98.086 6.188 98.23 5.628 98.518 5.14C98.806 4.652 99.198 4.272 99.694 4C100.19 3.72 100.758 3.58 101.398 3.58C102.03 3.58 102.594 3.72 103.09 4C103.594 4.272 103.986 4.652 104.266 5.14C104.554 5.62 104.698 6.18 104.698 6.82C104.698 7.452 104.554 8.012 104.266 8.5C103.986 8.988 103.594 9.372 103.09 9.652C102.594 9.932 102.03 10.072 101.398 10.072ZM101.398 9.064C101.806 9.064 102.17 8.972 102.49 8.788C102.818 8.604 103.074 8.344 103.258 8.008C103.442 7.664 103.534 7.268 103.534 6.82C103.534 6.364 103.442 5.972 103.258 5.644C103.074 5.308 102.818 5.048 102.49 4.864C102.17 4.68 101.806 4.588 101.398 4.588C100.99 4.588 100.626 4.68 100.306 4.864C99.986 5.048 99.73 5.308 99.538 5.644C99.346 5.972 99.25 6.364 99.25 6.82C99.25 7.268 99.346 7.664 99.538 8.008C99.73 8.344 99.986 8.604 100.306 8.788C100.626 8.972 100.99 9.064 101.398 9.064ZM109.075 12.4C108.491 12.4 107.923 12.316 107.371 12.148C106.827 11.988 106.383 11.756 106.039 11.452L106.591 10.564C106.887 10.82 107.251 11.02 107.683 11.164C108.115 11.316 108.567 11.392 109.039 11.392C109.791 11.392 110.343 11.216 110.695 10.864C111.047 10.512 111.223 9.976 111.223 9.256V7.912L111.343 6.652L111.283 5.38V3.64H112.375V9.136C112.375 10.256 112.095 11.08 111.535 11.608C110.975 12.136 110.155 12.4 109.075 12.4ZM108.931 9.736C108.315 9.736 107.763 9.608 107.275 9.352C106.795 9.088 106.411 8.724 106.123 8.26C105.843 7.796 105.703 7.26 105.703 6.652C105.703 6.036 105.843 5.5 106.123 5.044C106.411 4.58 106.795 4.22 107.275 3.964C107.763 3.708 108.315 3.58 108.931 3.58C109.475 3.58 109.971 3.692 110.419 3.916C110.867 4.132 111.223 4.468 111.487 4.924C111.759 5.38 111.895 5.956 111.895 6.652C111.895 7.34 111.759 7.912 111.487 8.368C111.223 8.824 110.867 9.168 110.419 9.4C109.971 9.624 109.475 9.736 108.931 9.736ZM109.063 8.728C109.487 8.728 109.863 8.64 110.191 8.464C110.519 8.288 110.775 8.044 110.959 7.732C111.151 7.42 111.247 7.06 111.247 6.652C111.247 6.244 111.151 5.884 110.959 5.572C110.775 5.26 110.519 5.02 110.191 4.852C109.863 4.676 109.487 4.588 109.063 4.588C108.639 4.588 108.259 4.676 107.923 4.852C107.595 5.02 107.335 5.26 107.143 5.572C106.959 5.884 106.867 6.244 106.867 6.652C106.867 7.06 106.959 7.42 107.143 7.732C107.335 8.044 107.595 8.288 107.923 8.464C108.259 8.64 108.639 8.728 109.063 8.728ZM114.852 12.4C114.548 12.4 114.252 12.348 113.964 12.244C113.676 12.148 113.428 12.004 113.22 11.812L113.712 10.948C113.872 11.1 114.048 11.216 114.24 11.296C114.432 11.376 114.636 11.416 114.852 11.416C115.132 11.416 115.364 11.344 115.548 11.2C115.732 11.056 115.904 10.8 116.064 10.432L116.46 9.556L116.58 9.412L119.076 3.64H120.204L117.12 10.636C116.936 11.084 116.728 11.436 116.496 11.692C116.272 11.948 116.024 12.128 115.752 12.232C115.48 12.344 115.18 12.4 114.852 12.4ZM116.364 10.204L113.46 3.64H114.66L117.132 9.304L116.364 10.204ZM127.874 10.072C127.346 10.072 126.862 9.952 126.422 9.712C125.99 9.464 125.642 9.1 125.378 8.62C125.122 8.14 124.994 7.54 124.994 6.82C124.994 6.1 125.118 5.5 125.366 5.02C125.622 4.54 125.966 4.18 126.398 3.94C126.838 3.7 127.33 3.58 127.874 3.58C128.498 3.58 129.05 3.716 129.53 3.988C130.01 4.26 130.39 4.64 130.67 5.128C130.95 5.608 131.09 6.172 131.09 6.82C131.09 7.468 130.95 8.036 130.67 8.524C130.39 9.012 130.01 9.392 129.53 9.664C129.05 9.936 128.498 10.072 127.874 10.072ZM124.502 12.328V3.64H125.606V5.356L125.534 6.832L125.654 8.308V12.328H124.502ZM127.778 9.064C128.186 9.064 128.55 8.972 128.87 8.788C129.198 8.604 129.454 8.344 129.638 8.008C129.83 7.664 129.926 7.268 129.926 6.82C129.926 6.364 129.83 5.972 129.638 5.644C129.454 5.308 129.198 5.048 128.87 4.864C128.55 4.68 128.186 4.588 127.778 4.588C127.378 4.588 127.014 4.68 126.686 4.864C126.366 5.048 126.11 5.308 125.918 5.644C125.734 5.972 125.642 6.364 125.642 6.82C125.642 7.268 125.734 7.664 125.918 8.008C126.11 8.344 126.366 8.604 126.686 8.788C127.014 8.972 127.378 9.064 127.778 9.064ZM132.682 10V3.64H133.786V5.368L133.678 4.936C133.854 4.496 134.15 4.16 134.566 3.928C134.982 3.696 135.494 3.58 136.102 3.58V4.696C136.054 4.688 136.006 4.684 135.958 4.684C135.918 4.684 135.878 4.684 135.838 4.684C135.222 4.684 134.734 4.868 134.374 5.236C134.014 5.604 133.834 6.136 133.834 6.832V10H132.682ZM140.187 10.072C139.547 10.072 138.979 9.932 138.483 9.652C137.987 9.372 137.595 8.988 137.307 8.5C137.019 8.004 136.875 7.444 136.875 6.82C136.875 6.188 137.019 5.628 137.307 5.14C137.595 4.652 137.987 4.272 138.483 4C138.979 3.72 139.547 3.58 140.187 3.58C140.819 3.58 141.383 3.72 141.879 4C142.383 4.272 142.775 4.652 143.055 5.14C143.343 5.62 143.487 6.18 143.487 6.82C143.487 7.452 143.343 8.012 143.055 8.5C142.775 8.988 142.383 9.372 141.879 9.652C141.383 9.932 140.819 10.072 140.187 10.072ZM140.187 9.064C140.595 9.064 140.959 8.972 141.279 8.788C141.607 8.604 141.863 8.344 142.047 8.008C142.231 7.664 142.323 7.268 142.323 6.82C142.323 6.364 142.231 5.972 142.047 5.644C141.863 5.308 141.607 5.048 141.279 4.864C140.959 4.68 140.595 4.588 140.187 4.588C139.779 4.588 139.415 4.68 139.095 4.864C138.775 5.048 138.519 5.308 138.327 5.644C138.135 5.972 138.039 6.364 138.039 6.82C138.039 7.268 138.135 7.664 138.327 8.008C138.519 8.344 138.775 8.604 139.095 8.788C139.415 8.972 139.779 9.064 140.187 9.064ZM147.264 10.072C146.624 10.072 146.128 9.9 145.776 9.556C145.424 9.212 145.248 8.72 145.248 8.08V2.248H146.4V8.032C146.4 8.376 146.484 8.64 146.652 8.824C146.828 9.008 147.076 9.1 147.396 9.1C147.756 9.1 148.056 9 148.296 8.8L148.656 9.628C148.48 9.78 148.268 9.892 148.02 9.964C147.78 10.036 147.528 10.072 147.264 10.072ZM144.168 4.588V3.64H148.224V4.588H144.168ZM152.562 10.072C151.922 10.072 151.354 9.932 150.858 9.652C150.362 9.372 149.97 8.988 149.682 8.5C149.394 8.004 149.25 7.444 149.25 6.82C149.25 6.188 149.394 5.628 149.682 5.14C149.97 4.652 150.362 4.272 150.858 4C151.354 3.72 151.922 3.58 152.562 3.58C153.194 3.58 153.758 3.72 154.254 4C154.758 4.272 155.15 4.652 155.43 5.14C155.718 5.62 155.862 6.18 155.862 6.82C155.862 7.452 155.718 8.012 155.43 8.5C155.15 8.988 154.758 9.372 154.254 9.652C153.758 9.932 153.194 10.072 152.562 10.072ZM152.562 9.064C152.97 9.064 153.334 8.972 153.654 8.788C153.982 8.604 154.238 8.344 154.422 8.008C154.606 7.664 154.698 7.268 154.698 6.82C154.698 6.364 154.606 5.972 154.422 5.644C154.238 5.308 153.982 5.048 153.654 4.864C153.334 4.68 152.97 4.588 152.562 4.588C152.154 4.588 151.79 4.68 151.47 4.864C151.15 5.048 150.894 5.308 150.702 5.644C150.51 5.972 150.414 6.364 150.414 6.82C150.414 7.268 150.51 7.664 150.702 8.008C150.894 8.344 151.15 8.604 151.47 8.788C151.79 8.972 152.154 9.064 152.562 9.064ZM160.179 10.072C159.539 10.072 158.971 9.932 158.475 9.652C157.979 9.372 157.587 8.988 157.299 8.5C157.011 8.004 156.867 7.444 156.867 6.82C156.867 6.188 157.011 5.628 157.299 5.14C157.587 4.652 157.979 4.272 158.475 4C158.971 3.72 159.539 3.58 160.179 3.58C160.811 3.58 161.375 3.72 161.871 4C162.375 4.272 162.767 4.652 163.047 5.14C163.335 5.62 163.479 6.18 163.479 6.82C163.479 7.452 163.335 8.012 163.047 8.5C162.767 8.988 162.375 9.372 161.871 9.652C161.375 9.932 160.811 10.072 160.179 10.072ZM160.179 9.064C160.587 9.064 160.951 8.972 161.271 8.788C161.599 8.604 161.855 8.344 162.039 8.008C162.223 7.664 162.315 7.268 162.315 6.82C162.315 6.364 162.223 5.972 162.039 5.644C161.855 5.308 161.599 5.048 161.271 4.864C160.951 4.68 160.587 4.588 160.179 4.588C159.771 4.588 159.407 4.68 159.087 4.864C158.767 5.048 158.511 5.308 158.319 5.644C158.127 5.972 158.031 6.364 158.031 6.82C158.031 7.268 158.127 7.664 158.319 8.008C158.511 8.344 158.767 8.604 159.087 8.788C159.407 8.972 159.771 9.064 160.179 9.064ZM165.072 10V1.096H166.224V10H165.072ZM174.275 10.072C173.659 10.072 173.107 9.936 172.619 9.664C172.139 9.392 171.759 9.012 171.479 8.524C171.199 8.036 171.059 7.468 171.059 6.82C171.059 6.172 171.199 5.608 171.479 5.128C171.759 4.64 172.139 4.26 172.619 3.988C173.107 3.716 173.659 3.58 174.275 3.58C174.811 3.58 175.295 3.7 175.727 3.94C176.159 4.18 176.503 4.54 176.759 5.02C177.023 5.5 177.155 6.1 177.155 6.82C177.155 7.54 177.027 8.14 176.771 8.62C176.523 9.1 176.183 9.464 175.751 9.712C175.319 9.952 174.827 10.072 174.275 10.072ZM174.371 9.064C174.771 9.064 175.131 8.972 175.451 8.788C175.779 8.604 176.035 8.344 176.219 8.008C176.411 7.664 176.507 7.268 176.507 6.82C176.507 6.364 176.411 5.972 176.219 5.644C176.035 5.308 175.779 5.048 175.451 4.864C175.131 4.68 174.771 4.588 174.371 4.588C173.963 4.588 173.599 4.68 173.279 4.864C172.959 5.048 172.703 5.308 172.511 5.644C172.319 5.972 172.223 6.364 172.223 6.82C172.223 7.268 172.319 7.664 172.511 8.008C172.703 8.344 172.959 8.604 173.279 8.788C173.599 8.972 173.963 9.064 174.371 9.064ZM176.543 10V8.284L176.615 6.808L176.495 5.332V1.096H177.647V10H176.543ZM182.658 10.072C181.978 10.072 181.378 9.932 180.858 9.652C180.346 9.372 179.946 8.988 179.658 8.5C179.378 8.012 179.238 7.452 179.238 6.82C179.238 6.188 179.374 5.628 179.646 5.14C179.926 4.652 180.306 4.272 180.786 4C181.274 3.72 181.822 3.58 182.43 3.58C183.046 3.58 183.59 3.716 184.062 3.988C184.534 4.26 184.902 4.644 185.166 5.14C185.438 5.628 185.574 6.2 185.574 6.856C185.574 6.904 185.57 6.96 185.562 7.024C185.562 7.088 185.558 7.148 185.55 7.204H180.138V6.376H184.95L184.482 6.664C184.49 6.256 184.406 5.892 184.23 5.572C184.054 5.252 183.81 5.004 183.498 4.828C183.194 4.644 182.838 4.552 182.43 4.552C182.03 4.552 181.674 4.644 181.362 4.828C181.05 5.004 180.806 5.256 180.63 5.584C180.454 5.904 180.366 6.272 180.366 6.688V6.88C180.366 7.304 180.462 7.684 180.654 8.02C180.854 8.348 181.13 8.604 181.482 8.788C181.834 8.972 182.238 9.064 182.694 9.064C183.07 9.064 183.41 9 183.714 8.872C184.026 8.744 184.298 8.552 184.53 8.296L185.166 9.04C184.878 9.376 184.518 9.632 184.086 9.808C183.662 9.984 183.186 10.072 182.658 10.072ZM188.998 10.072C188.47 10.072 187.966 10 187.486 9.856C187.014 9.712 186.642 9.536 186.37 9.328L186.85 8.416C187.122 8.6 187.458 8.756 187.858 8.884C188.258 9.012 188.666 9.076 189.082 9.076C189.618 9.076 190.002 9 190.234 8.848C190.474 8.696 190.594 8.484 190.594 8.212C190.594 8.012 190.522 7.856 190.378 7.744C190.234 7.632 190.042 7.548 189.802 7.492C189.57 7.436 189.31 7.388 189.022 7.348C188.734 7.3 188.446 7.244 188.158 7.18C187.87 7.108 187.606 7.012 187.366 6.892C187.126 6.764 186.934 6.592 186.79 6.376C186.646 6.152 186.574 5.856 186.574 5.488C186.574 5.104 186.682 4.768 186.898 4.48C187.114 4.192 187.418 3.972 187.81 3.82C188.21 3.66 188.682 3.58 189.226 3.58C189.642 3.58 190.062 3.632 190.486 3.736C190.918 3.832 191.27 3.972 191.542 4.156L191.05 5.068C190.762 4.876 190.462 4.744 190.15 4.672C189.838 4.6 189.526 4.564 189.214 4.564C188.71 4.564 188.334 4.648 188.086 4.816C187.838 4.976 187.714 5.184 187.714 5.44C187.714 5.656 187.786 5.824 187.93 5.944C188.082 6.056 188.274 6.144 188.506 6.208C188.746 6.272 189.01 6.328 189.298 6.376C189.586 6.416 189.874 6.472 190.162 6.544C190.45 6.608 190.71 6.7 190.942 6.82C191.182 6.94 191.374 7.108 191.518 7.324C191.67 7.54 191.746 7.828 191.746 8.188C191.746 8.572 191.634 8.904 191.41 9.184C191.186 9.464 190.87 9.684 190.462 9.844C190.054 9.996 189.566 10.072 188.998 10.072ZM193.186 10V3.64H194.338V10H193.186ZM193.762 2.416C193.538 2.416 193.35 2.344 193.198 2.2C193.054 2.056 192.982 1.88 192.982 1.672C192.982 1.456 193.054 1.276 193.198 1.132C193.35 0.988 193.538 0.916 193.762 0.916C193.986 0.916 194.17 0.988 194.314 1.132C194.466 1.268 194.542 1.44 194.542 1.648C194.542 1.864 194.47 2.048 194.326 2.2C194.182 2.344 193.994 2.416 193.762 2.416ZM199.321 12.4C198.737 12.4 198.169 12.316 197.617 12.148C197.073 11.988 196.629 11.756 196.285 11.452L196.837 10.564C197.133 10.82 197.497 11.02 197.929 11.164C198.361 11.316 198.813 11.392 199.285 11.392C200.037 11.392 200.589 11.216 200.941 10.864C201.293 10.512 201.469 9.976 201.469 9.256V7.912L201.589 6.652L201.529 5.38V3.64H202.621V9.136C202.621 10.256 202.341 11.08 201.781 11.608C201.221 12.136 200.401 12.4 199.321 12.4ZM199.177 9.736C198.561 9.736 198.009 9.608 197.521 9.352C197.041 9.088 196.657 8.724 196.369 8.26C196.089 7.796 195.949 7.26 195.949 6.652C195.949 6.036 196.089 5.5 196.369 5.044C196.657 4.58 197.041 4.22 197.521 3.964C198.009 3.708 198.561 3.58 199.177 3.58C199.721 3.58 200.217 3.692 200.665 3.916C201.113 4.132 201.469 4.468 201.733 4.924C202.005 5.38 202.141 5.956 202.141 6.652C202.141 7.34 202.005 7.912 201.733 8.368C201.469 8.824 201.113 9.168 200.665 9.4C200.217 9.624 199.721 9.736 199.177 9.736ZM199.309 8.728C199.733 8.728 200.109 8.64 200.437 8.464C200.765 8.288 201.021 8.044 201.205 7.732C201.397 7.42 201.493 7.06 201.493 6.652C201.493 6.244 201.397 5.884 201.205 5.572C201.021 5.26 200.765 5.02 200.437 4.852C200.109 4.676 199.733 4.588 199.309 4.588C198.885 4.588 198.505 4.676 198.169 4.852C197.841 5.02 197.581 5.26 197.389 5.572C197.205 5.884 197.113 6.244 197.113 6.652C197.113 7.06 197.205 7.42 197.389 7.732C197.581 8.044 197.841 8.288 198.169 8.464C198.505 8.64 198.885 8.728 199.309 8.728ZM208.218 3.58C208.738 3.58 209.194 3.68 209.586 3.88C209.986 4.08 210.298 4.384 210.522 4.792C210.746 5.2 210.858 5.716 210.858 6.34V10H209.706V6.472C209.706 5.856 209.554 5.392 209.25 5.08C208.954 4.768 208.534 4.612 207.99 4.612C207.582 4.612 207.226 4.692 206.922 4.852C206.618 5.012 206.382 5.248 206.214 5.56C206.054 5.872 205.974 6.26 205.974 6.724V10H204.822V3.64H205.926V5.356L205.746 4.9C205.954 4.484 206.274 4.16 206.706 3.928C207.138 3.696 207.642 3.58 208.218 3.58ZM215.822 10.072C215.142 10.072 214.542 9.932 214.022 9.652C213.51 9.372 213.11 8.988 212.822 8.5C212.542 8.012 212.402 7.452 212.402 6.82C212.402 6.188 212.538 5.628 212.81 5.14C213.09 4.652 213.47 4.272 213.95 4C214.438 3.72 214.986 3.58 215.594 3.58C216.21 3.58 216.754 3.716 217.226 3.988C217.698 4.26 218.066 4.644 218.33 5.14C218.602 5.628 218.738 6.2 218.738 6.856C218.738 6.904 218.734 6.96 218.726 7.024C218.726 7.088 218.722 7.148 218.714 7.204H213.302V6.376H218.114L217.646 6.664C217.654 6.256 217.57 5.892 217.394 5.572C217.218 5.252 216.974 5.004 216.662 4.828C216.358 4.644 216.002 4.552 215.594 4.552C215.194 4.552 214.838 4.644 214.526 4.828C214.214 5.004 213.97 5.256 213.794 5.584C213.618 5.904 213.53 6.272 213.53 6.688V6.88C213.53 7.304 213.626 7.684 213.818 8.02C214.018 8.348 214.294 8.604 214.646 8.788C214.998 8.972 215.402 9.064 215.858 9.064C216.234 9.064 216.574 9 216.878 8.872C217.19 8.744 217.462 8.552 217.694 8.296L218.33 9.04C218.042 9.376 217.682 9.632 217.25 9.808C216.826 9.984 216.35 10.072 215.822 10.072ZM222.966 10.072C222.35 10.072 221.798 9.936 221.31 9.664C220.83 9.392 220.45 9.012 220.17 8.524C219.89 8.036 219.75 7.468 219.75 6.82C219.75 6.172 219.89 5.608 220.17 5.128C220.45 4.64 220.83 4.26 221.31 3.988C221.798 3.716 222.35 3.58 222.966 3.58C223.502 3.58 223.986 3.7 224.418 3.94C224.85 4.18 225.194 4.54 225.45 5.02C225.714 5.5 225.846 6.1 225.846 6.82C225.846 7.54 225.718 8.14 225.462 8.62C225.214 9.1 224.874 9.464 224.442 9.712C224.01 9.952 223.518 10.072 222.966 10.072ZM223.062 9.064C223.462 9.064 223.822 8.972 224.142 8.788C224.47 8.604 224.726 8.344 224.91 8.008C225.102 7.664 225.198 7.268 225.198 6.82C225.198 6.364 225.102 5.972 224.91 5.644C224.726 5.308 224.47 5.048 224.142 4.864C223.822 4.68 223.462 4.588 223.062 4.588C222.654 4.588 222.29 4.68 221.97 4.864C221.65 5.048 221.394 5.308 221.202 5.644C221.01 5.972 220.914 6.364 220.914 6.82C220.914 7.268 221.01 7.664 221.202 8.008C221.394 8.344 221.65 8.604 221.97 8.788C222.29 8.972 222.654 9.064 223.062 9.064ZM225.234 10V8.284L225.306 6.808L225.186 5.332V1.096H226.338V10H225.234ZM237.147 10.072C236.507 10.072 236.011 9.9 235.659 9.556C235.307 9.212 235.131 8.72 235.131 8.08V2.248H236.283V8.032C236.283 8.376 236.367 8.64 236.535 8.824C236.711 9.008 236.959 9.1 237.279 9.1C237.639 9.1 237.939 9 238.179 8.8L238.539 9.628C238.363 9.78 238.151 9.892 237.903 9.964C237.663 10.036 237.411 10.072 237.147 10.072ZM234.051 4.588V3.64H238.107V4.588H234.051ZM242.445 10.072C241.805 10.072 241.237 9.932 240.741 9.652C240.245 9.372 239.853 8.988 239.565 8.5C239.277 8.004 239.133 7.444 239.133 6.82C239.133 6.188 239.277 5.628 239.565 5.14C239.853 4.652 240.245 4.272 240.741 4C241.237 3.72 241.805 3.58 242.445 3.58C243.077 3.58 243.641 3.72 244.137 4C244.641 4.272 245.033 4.652 245.313 5.14C245.601 5.62 245.745 6.18 245.745 6.82C245.745 7.452 245.601 8.012 245.313 8.5C245.033 8.988 244.641 9.372 244.137 9.652C243.641 9.932 243.077 10.072 242.445 10.072ZM242.445 9.064C242.853 9.064 243.217 8.972 243.537 8.788C243.865 8.604 244.121 8.344 244.305 8.008C244.489 7.664 244.581 7.268 244.581 6.82C244.581 6.364 244.489 5.972 244.305 5.644C244.121 5.308 243.865 5.048 243.537 4.864C243.217 4.68 242.853 4.588 242.445 4.588C242.037 4.588 241.673 4.68 241.353 4.864C241.033 5.048 240.777 5.308 240.585 5.644C240.393 5.972 240.297 6.364 240.297 6.82C240.297 7.268 240.393 7.664 240.585 8.008C240.777 8.344 241.033 8.604 241.353 8.788C241.673 8.972 242.037 9.064 242.445 9.064ZM250.561 10V3.64H251.713V10H250.561ZM251.137 2.416C250.913 2.416 250.725 2.344 250.573 2.2C250.429 2.056 250.357 1.88 250.357 1.672C250.357 1.456 250.429 1.276 250.573 1.132C250.725 0.988 250.913 0.916 251.137 0.916C251.361 0.916 251.545 0.988 251.689 1.132C251.841 1.268 251.917 1.44 251.917 1.648C251.917 1.864 251.845 2.048 251.701 2.2C251.557 2.344 251.369 2.416 251.137 2.416ZM261.868 3.58C262.38 3.58 262.832 3.68 263.224 3.88C263.616 4.08 263.92 4.384 264.136 4.792C264.36 5.2 264.472 5.716 264.472 6.34V10H263.32V6.472C263.32 5.856 263.176 5.392 262.888 5.08C262.6 4.768 262.196 4.612 261.676 4.612C261.292 4.612 260.956 4.692 260.668 4.852C260.38 5.012 260.156 5.248 259.996 5.56C259.844 5.872 259.768 6.26 259.768 6.724V10H258.616V6.472C258.616 5.856 258.472 5.392 258.184 5.08C257.904 4.768 257.5 4.612 256.972 4.612C256.596 4.612 256.264 4.692 255.976 4.852C255.688 5.012 255.464 5.248 255.304 5.56C255.144 5.872 255.064 6.26 255.064 6.724V10H253.912V3.64H255.016V5.332L254.836 4.9C255.036 4.484 255.344 4.16 255.76 3.928C256.176 3.696 256.66 3.58 257.212 3.58C257.82 3.58 258.344 3.732 258.784 4.036C259.224 4.332 259.512 4.784 259.648 5.392L259.18 5.2C259.372 4.712 259.708 4.32 260.188 4.024C260.668 3.728 261.228 3.58 261.868 3.58ZM269.964 10.072C269.436 10.072 268.952 9.952 268.512 9.712C268.08 9.464 267.732 9.1 267.468 8.62C267.212 8.14 267.084 7.54 267.084 6.82C267.084 6.1 267.208 5.5 267.456 5.02C267.712 4.54 268.056 4.18 268.488 3.94C268.928 3.7 269.42 3.58 269.964 3.58C270.588 3.58 271.14 3.716 271.62 3.988C272.1 4.26 272.48 4.64 272.76 5.128C273.04 5.608 273.18 6.172 273.18 6.82C273.18 7.468 273.04 8.036 272.76 8.524C272.48 9.012 272.1 9.392 271.62 9.664C271.14 9.936 270.588 10.072 269.964 10.072ZM266.592 12.328V3.64H267.696V5.356L267.624 6.832L267.744 8.308V12.328H266.592ZM269.868 9.064C270.276 9.064 270.64 8.972 270.96 8.788C271.288 8.604 271.544 8.344 271.728 8.008C271.92 7.664 272.016 7.268 272.016 6.82C272.016 6.364 271.92 5.972 271.728 5.644C271.544 5.308 271.288 5.048 270.96 4.864C270.64 4.68 270.276 4.588 269.868 4.588C269.468 4.588 269.104 4.68 268.776 4.864C268.456 5.048 268.2 5.308 268.008 5.644C267.824 5.972 267.732 6.364 267.732 6.82C267.732 7.268 267.824 7.664 268.008 8.008C268.2 8.344 268.456 8.604 268.776 8.788C269.104 8.972 269.468 9.064 269.868 9.064ZM274.772 10V3.64H275.876V5.368L275.768 4.936C275.944 4.496 276.24 4.16 276.656 3.928C277.072 3.696 277.584 3.58 278.192 3.58V4.696C278.144 4.688 278.096 4.684 278.048 4.684C278.008 4.684 277.968 4.684 277.928 4.684C277.312 4.684 276.824 4.868 276.464 5.236C276.104 5.604 275.924 6.136 275.924 6.832V10H274.772ZM282.277 10.072C281.637 10.072 281.069 9.932 280.573 9.652C280.077 9.372 279.685 8.988 279.397 8.5C279.109 8.004 278.965 7.444 278.965 6.82C278.965 6.188 279.109 5.628 279.397 5.14C279.685 4.652 280.077 4.272 280.573 4C281.069 3.72 281.637 3.58 282.277 3.58C282.909 3.58 283.473 3.72 283.969 4C284.473 4.272 284.865 4.652 285.145 5.14C285.433 5.62 285.577 6.18 285.577 6.82C285.577 7.452 285.433 8.012 285.145 8.5C284.865 8.988 284.473 9.372 283.969 9.652C283.473 9.932 282.909 10.072 282.277 10.072ZM282.277 9.064C282.685 9.064 283.049 8.972 283.369 8.788C283.697 8.604 283.953 8.344 284.137 8.008C284.321 7.664 284.413 7.268 284.413 6.82C284.413 6.364 284.321 5.972 284.137 5.644C283.953 5.308 283.697 5.048 283.369 4.864C283.049 4.68 282.685 4.588 282.277 4.588C281.869 4.588 281.505 4.68 281.185 4.864C280.865 5.048 280.609 5.308 280.417 5.644C280.225 5.972 280.129 6.364 280.129 6.82C280.129 7.268 280.225 7.664 280.417 8.008C280.609 8.344 280.865 8.604 281.185 8.788C281.505 8.972 281.869 9.064 282.277 9.064ZM288.662 10L285.878 3.64H287.078L289.55 9.4H288.974L291.494 3.64H292.622L289.838 10H288.662ZM296.354 10.072C295.674 10.072 295.074 9.932 294.554 9.652C294.042 9.372 293.642 8.988 293.354 8.5C293.074 8.012 292.934 7.452 292.934 6.82C292.934 6.188 293.07 5.628 293.342 5.14C293.622 4.652 294.002 4.272 294.482 4C294.97 3.72 295.518 3.58 296.126 3.58C296.742 3.58 297.286 3.716 297.758 3.988C298.23 4.26 298.598 4.644 298.862 5.14C299.134 5.628 299.27 6.2 299.27 6.856C299.27 6.904 299.266 6.96 299.258 7.024C299.258 7.088 299.254 7.148 299.246 7.204H293.834V6.376H298.646L298.178 6.664C298.186 6.256 298.102 5.892 297.926 5.572C297.75 5.252 297.506 5.004 297.194 4.828C296.89 4.644 296.534 4.552 296.126 4.552C295.726 4.552 295.37 4.644 295.058 4.828C294.746 5.004 294.502 5.256 294.326 5.584C294.15 5.904 294.062 6.272 294.062 6.688V6.88C294.062 7.304 294.158 7.684 294.35 8.02C294.55 8.348 294.826 8.604 295.178 8.788C295.53 8.972 295.934 9.064 296.39 9.064C296.766 9.064 297.106 9 297.41 8.872C297.722 8.744 297.994 8.552 298.226 8.296L298.862 9.04C298.574 9.376 298.214 9.632 297.782 9.808C297.358 9.984 296.882 10.072 296.354 10.072ZM306.276 10.072C305.636 10.072 305.14 9.9 304.788 9.556C304.436 9.212 304.26 8.72 304.26 8.08V2.248H305.412V8.032C305.412 8.376 305.496 8.64 305.664 8.824C305.84 9.008 306.088 9.1 306.408 9.1C306.768 9.1 307.068 9 307.308 8.8L307.668 9.628C307.492 9.78 307.28 9.892 307.032 9.964C306.792 10.036 306.54 10.072 306.276 10.072ZM303.18 4.588V3.64H307.236V4.588H303.18ZM312.457 3.58C312.977 3.58 313.433 3.68 313.825 3.88C314.225 4.08 314.537 4.384 314.761 4.792C314.985 5.2 315.097 5.716 315.097 6.34V10H313.945V6.472C313.945 5.856 313.793 5.392 313.489 5.08C313.193 4.768 312.773 4.612 312.229 4.612C311.821 4.612 311.465 4.692 311.161 4.852C310.857 5.012 310.621 5.248 310.453 5.56C310.293 5.872 310.213 6.26 310.213 6.724V10H309.061V1.096H310.213V5.356L309.985 4.9C310.193 4.484 310.513 4.16 310.945 3.928C311.377 3.696 311.881 3.58 312.457 3.58ZM320.061 10.072C319.381 10.072 318.781 9.932 318.261 9.652C317.749 9.372 317.349 8.988 317.061 8.5C316.781 8.012 316.641 7.452 316.641 6.82C316.641 6.188 316.777 5.628 317.049 5.14C317.329 4.652 317.709 4.272 318.189 4C318.677 3.72 319.225 3.58 319.833 3.58C320.449 3.58 320.993 3.716 321.465 3.988C321.937 4.26 322.305 4.644 322.569 5.14C322.841 5.628 322.977 6.2 322.977 6.856C322.977 6.904 322.973 6.96 322.965 7.024C322.965 7.088 322.961 7.148 322.953 7.204H317.541V6.376H322.353L321.885 6.664C321.893 6.256 321.809 5.892 321.633 5.572C321.457 5.252 321.213 5.004 320.901 4.828C320.597 4.644 320.241 4.552 319.833 4.552C319.433 4.552 319.077 4.644 318.765 4.828C318.453 5.004 318.209 5.256 318.033 5.584C317.857 5.904 317.769 6.272 317.769 6.688V6.88C317.769 7.304 317.865 7.684 318.057 8.02C318.257 8.348 318.533 8.604 318.885 8.788C319.237 8.972 319.641 9.064 320.097 9.064C320.473 9.064 320.813 9 321.117 8.872C321.429 8.744 321.701 8.552 321.933 8.296L322.569 9.04C322.281 9.376 321.921 9.632 321.489 9.808C321.065 9.984 320.589 10.072 320.061 10.072ZM329.467 10L326.683 3.64H327.883L330.355 9.4H329.779L332.299 3.64H333.427L330.643 10H329.467ZM338.251 10V8.656L338.191 8.404V6.112C338.191 5.624 338.047 5.248 337.759 4.984C337.479 4.712 337.055 4.576 336.487 4.576C336.111 4.576 335.743 4.64 335.383 4.768C335.023 4.888 334.719 5.052 334.471 5.26L333.991 4.396C334.319 4.132 334.711 3.932 335.167 3.796C335.631 3.652 336.115 3.58 336.619 3.58C337.491 3.58 338.163 3.792 338.635 4.216C339.107 4.64 339.343 5.288 339.343 6.16V10H338.251ZM336.163 10.072C335.691 10.072 335.275 9.992 334.915 9.832C334.563 9.672 334.291 9.452 334.099 9.172C333.907 8.884 333.811 8.56 333.811 8.2C333.811 7.856 333.891 7.544 334.051 7.264C334.219 6.984 334.487 6.76 334.855 6.592C335.231 6.424 335.735 6.34 336.367 6.34H338.383V7.168H336.415C335.839 7.168 335.451 7.264 335.251 7.456C335.051 7.648 334.951 7.88 334.951 8.152C334.951 8.464 335.075 8.716 335.323 8.908C335.571 9.092 335.915 9.184 336.355 9.184C336.787 9.184 337.163 9.088 337.483 8.896C337.811 8.704 338.047 8.424 338.191 8.056L338.419 8.848C338.267 9.224 337.999 9.524 337.615 9.748C337.231 9.964 336.747 10.072 336.163 10.072ZM341.475 10V1.096H342.627V10H341.475ZM344.826 10V3.64H345.978V10H344.826ZM345.402 2.416C345.178 2.416 344.99 2.344 344.838 2.2C344.694 2.056 344.622 1.88 344.622 1.672C344.622 1.456 344.694 1.276 344.838 1.132C344.99 0.988 345.178 0.916 345.402 0.916C345.626 0.916 345.81 0.988 345.954 1.132C346.106 1.268 346.182 1.44 346.182 1.648C346.182 1.864 346.11 2.048 345.966 2.2C345.822 2.344 345.634 2.416 345.402 2.416ZM350.806 10.072C350.19 10.072 349.638 9.936 349.15 9.664C348.67 9.392 348.29 9.012 348.01 8.524C347.73 8.036 347.59 7.468 347.59 6.82C347.59 6.172 347.73 5.608 348.01 5.128C348.29 4.64 348.67 4.26 349.15 3.988C349.638 3.716 350.19 3.58 350.806 3.58C351.342 3.58 351.826 3.7 352.258 3.94C352.69 4.18 353.034 4.54 353.29 5.02C353.554 5.5 353.686 6.1 353.686 6.82C353.686 7.54 353.558 8.14 353.302 8.62C353.054 9.1 352.714 9.464 352.282 9.712C351.85 9.952 351.358 10.072 350.806 10.072ZM350.902 9.064C351.302 9.064 351.662 8.972 351.982 8.788C352.31 8.604 352.566 8.344 352.75 8.008C352.942 7.664 353.038 7.268 353.038 6.82C353.038 6.364 352.942 5.972 352.75 5.644C352.566 5.308 352.31 5.048 351.982 4.864C351.662 4.68 351.302 4.588 350.902 4.588C350.494 4.588 350.13 4.68 349.81 4.864C349.49 5.048 349.234 5.308 349.042 5.644C348.85 5.972 348.754 6.364 348.754 6.82C348.754 7.268 348.85 7.664 349.042 8.008C349.234 8.344 349.49 8.604 349.81 8.788C350.13 8.972 350.494 9.064 350.902 9.064ZM353.074 10V8.284L353.146 6.808L353.026 5.332V1.096H354.178V10H353.074ZM356.358 10V3.64H357.51V10H356.358ZM356.934 2.416C356.71 2.416 356.522 2.344 356.37 2.2C356.226 2.056 356.154 1.88 356.154 1.672C356.154 1.456 356.226 1.276 356.37 1.132C356.522 0.988 356.71 0.916 356.934 0.916C357.158 0.916 357.342 0.988 357.486 1.132C357.638 1.268 357.714 1.44 357.714 1.648C357.714 1.864 357.642 2.048 357.498 2.2C357.354 2.344 357.166 2.416 356.934 2.416ZM361.893 10.072C361.253 10.072 360.757 9.9 360.405 9.556C360.053 9.212 359.877 8.72 359.877 8.08V2.248H361.029V8.032C361.029 8.376 361.113 8.64 361.281 8.824C361.457 9.008 361.705 9.1 362.025 9.1C362.385 9.1 362.685 9 362.925 8.8L363.285 9.628C363.109 9.78 362.897 9.892 362.649 9.964C362.409 10.036 362.157 10.072 361.893 10.072ZM358.797 4.588V3.64H362.853V4.588H358.797ZM364.837 12.4C364.533 12.4 364.237 12.348 363.949 12.244C363.661 12.148 363.413 12.004 363.205 11.812L363.697 10.948C363.857 11.1 364.033 11.216 364.225 11.296C364.417 11.376 364.621 11.416 364.837 11.416C365.117 11.416 365.349 11.344 365.533 11.2C365.717 11.056 365.889 10.8 366.049 10.432L366.445 9.556L366.565 9.412L369.061 3.64H370.189L367.105 10.636C366.921 11.084 366.713 11.436 366.481 11.692C366.257 11.948 366.009 12.128 365.737 12.232C365.465 12.344 365.165 12.4 364.837 12.4ZM366.349 10.204L363.445 3.64H364.645L367.117 9.304L366.349 10.204ZM370.409 11.776L371.009 9.352L371.165 10.048C370.933 10.048 370.737 9.976 370.577 9.832C370.425 9.688 370.349 9.492 370.349 9.244C370.349 9.004 370.425 8.808 370.577 8.656C370.737 8.504 370.929 8.428 371.153 8.428C371.385 8.428 371.573 8.508 371.717 8.668C371.861 8.82 371.933 9.012 371.933 9.244C371.933 9.324 371.925 9.404 371.909 9.484C371.901 9.556 371.881 9.644 371.849 9.748C371.825 9.844 371.785 9.964 371.729 10.108L371.165 11.776H370.409ZM379.579 10.072C378.931 10.072 378.351 9.932 377.839 9.652C377.335 9.372 376.939 8.988 376.651 8.5C376.363 8.012 376.219 7.452 376.219 6.82C376.219 6.188 376.363 5.628 376.651 5.14C376.939 4.652 377.335 4.272 377.839 4C378.351 3.72 378.931 3.58 379.579 3.58C380.155 3.58 380.667 3.696 381.115 3.928C381.571 4.152 381.923 4.488 382.171 4.936L381.295 5.5C381.087 5.188 380.831 4.96 380.527 4.816C380.231 4.664 379.911 4.588 379.567 4.588C379.151 4.588 378.779 4.68 378.451 4.864C378.123 5.048 377.863 5.308 377.671 5.644C377.479 5.972 377.383 6.364 377.383 6.82C377.383 7.276 377.479 7.672 377.671 8.008C377.863 8.344 378.123 8.604 378.451 8.788C378.779 8.972 379.151 9.064 379.567 9.064C379.911 9.064 380.231 8.992 380.527 8.848C380.831 8.696 381.087 8.464 381.295 8.152L382.171 8.704C381.923 9.144 381.571 9.484 381.115 9.724C380.667 9.956 380.155 10.072 379.579 10.072ZM386.401 10.072C385.721 10.072 385.121 9.932 384.601 9.652C384.089 9.372 383.689 8.988 383.401 8.5C383.121 8.012 382.981 7.452 382.981 6.82C382.981 6.188 383.117 5.628 383.389 5.14C383.669 4.652 384.049 4.272 384.529 4C385.017 3.72 385.565 3.58 386.173 3.58C386.789 3.58 387.333 3.716 387.805 3.988C388.277 4.26 388.645 4.644 388.909 5.14C389.181 5.628 389.317 6.2 389.317 6.856C389.317 6.904 389.313 6.96 389.305 7.024C389.305 7.088 389.301 7.148 389.293 7.204H383.881V6.376H388.693L388.225 6.664C388.233 6.256 388.149 5.892 387.973 5.572C387.797 5.252 387.553 5.004 387.241 4.828C386.937 4.644 386.581 4.552 386.173 4.552C385.773 4.552 385.417 4.644 385.105 4.828C384.793 5.004 384.549 5.256 384.373 5.584C384.197 5.904 384.109 6.272 384.109 6.688V6.88C384.109 7.304 384.205 7.684 384.397 8.02C384.597 8.348 384.873 8.604 385.225 8.788C385.577 8.972 385.981 9.064 386.437 9.064C386.813 9.064 387.153 9 387.457 8.872C387.769 8.744 388.041 8.552 388.273 8.296L388.909 9.04C388.621 9.376 388.261 9.632 387.829 9.808C387.405 9.984 386.929 10.072 386.401 10.072ZM390.916 10V3.64H392.02V5.368L391.912 4.936C392.088 4.496 392.384 4.16 392.8 3.928C393.216 3.696 393.728 3.58 394.336 3.58V4.696C394.288 4.688 394.24 4.684 394.192 4.684C394.152 4.684 394.112 4.684 394.072 4.684C393.456 4.684 392.968 4.868 392.608 5.236C392.248 5.604 392.068 6.136 392.068 6.832V10H390.916ZM398.198 10.072C397.558 10.072 397.062 9.9 396.71 9.556C396.358 9.212 396.182 8.72 396.182 8.08V2.248H397.334V8.032C397.334 8.376 397.418 8.64 397.586 8.824C397.762 9.008 398.01 9.1 398.33 9.1C398.69 9.1 398.99 9 399.23 8.8L399.59 9.628C399.414 9.78 399.202 9.892 398.954 9.964C398.714 10.036 398.462 10.072 398.198 10.072ZM395.102 4.588V3.64H399.158V4.588H395.102ZM404.931 10V8.656L404.871 8.404V6.112C404.871 5.624 404.727 5.248 404.439 4.984C404.159 4.712 403.735 4.576 403.167 4.576C402.791 4.576 402.423 4.64 402.063 4.768C401.703 4.888 401.399 5.052 401.151 5.26L400.671 4.396C400.999 4.132 401.391 3.932 401.847 3.796C402.311 3.652 402.795 3.58 403.299 3.58C404.171 3.58 404.843 3.792 405.315 4.216C405.787 4.64 406.023 5.288 406.023 6.16V10H404.931ZM402.843 10.072C402.371 10.072 401.955 9.992 401.595 9.832C401.243 9.672 400.971 9.452 400.779 9.172C400.587 8.884 400.491 8.56 400.491 8.2C400.491 7.856 400.571 7.544 400.731 7.264C400.899 6.984 401.167 6.76 401.535 6.592C401.911 6.424 402.415 6.34 403.047 6.34H405.063V7.168H403.095C402.519 7.168 402.131 7.264 401.931 7.456C401.731 7.648 401.631 7.88 401.631 8.152C401.631 8.464 401.755 8.716 402.003 8.908C402.251 9.092 402.595 9.184 403.035 9.184C403.467 9.184 403.843 9.088 404.163 8.896C404.491 8.704 404.727 8.424 404.871 8.056L405.099 8.848C404.947 9.224 404.679 9.524 404.295 9.748C403.911 9.964 403.427 10.072 402.843 10.072ZM408.155 10V3.64H409.307V10H408.155ZM408.731 2.416C408.507 2.416 408.319 2.344 408.167 2.2C408.023 2.056 407.951 1.88 407.951 1.672C407.951 1.456 408.023 1.276 408.167 1.132C408.319 0.988 408.507 0.916 408.731 0.916C408.955 0.916 409.139 0.988 409.283 1.132C409.435 1.268 409.511 1.44 409.511 1.648C409.511 1.864 409.439 2.048 409.295 2.2C409.151 2.344 408.963 2.416 408.731 2.416ZM414.902 3.58C415.422 3.58 415.878 3.68 416.27 3.88C416.67 4.08 416.982 4.384 417.206 4.792C417.43 5.2 417.542 5.716 417.542 6.34V10H416.39V6.472C416.39 5.856 416.238 5.392 415.934 5.08C415.638 4.768 415.218 4.612 414.674 4.612C414.266 4.612 413.91 4.692 413.606 4.852C413.302 5.012 413.066 5.248 412.898 5.56C412.738 5.872 412.658 6.26 412.658 6.724V10H411.506V3.64H412.61V5.356L412.43 4.9C412.638 4.484 412.958 4.16 413.39 3.928C413.822 3.696 414.326 3.58 414.902 3.58ZM421.858 10.072C421.218 10.072 420.722 9.9 420.37 9.556C420.018 9.212 419.842 8.72 419.842 8.08V2.248H420.994V8.032C420.994 8.376 421.078 8.64 421.246 8.824C421.422 9.008 421.67 9.1 421.99 9.1C422.35 9.1 422.65 9 422.89 8.8L423.25 9.628C423.074 9.78 422.862 9.892 422.614 9.964C422.374 10.036 422.122 10.072 421.858 10.072ZM418.762 4.588V3.64H422.818V4.588H418.762ZM424.802 12.4C424.498 12.4 424.202 12.348 423.914 12.244C423.626 12.148 423.378 12.004 423.17 11.812L423.662 10.948C423.822 11.1 423.998 11.216 424.19 11.296C424.382 11.376 424.586 11.416 424.802 11.416C425.082 11.416 425.314 11.344 425.498 11.2C425.682 11.056 425.854 10.8 426.014 10.432L426.41 9.556L426.53 9.412L429.026 3.64H430.154L427.07 10.636C426.886 11.084 426.678 11.436 426.446 11.692C426.222 11.948 425.974 12.128 425.702 12.232C425.43 12.344 425.13 12.4 424.802 12.4ZM426.314 10.204L423.41 3.64H424.61L427.082 9.304L426.314 10.204ZM5.04 30V28.656L4.98 28.404V26.112C4.98 25.624 4.836 25.248 4.548 24.984C4.268 24.712 3.844 24.576 3.276 24.576C2.9 24.576 2.532 24.64 2.172 24.768C1.812 24.888 1.508 25.052 1.26 25.26L0.78 24.396C1.108 24.132 1.5 23.932 1.956 23.796C2.42 23.652 2.904 23.58 3.408 23.58C4.28 23.58 4.952 23.792 5.424 24.216C5.896 24.64 6.132 25.288 6.132 26.16V30H5.04ZM2.952 30.072C2.48 30.072 2.064 29.992 1.704 29.832C1.352 29.672 1.08 29.452 0.888 29.172C0.696 28.884 0.6 28.56 0.6 28.2C0.6 27.856 0.68 27.544 0.84 27.264C1.008 26.984 1.276 26.76 1.644 26.592C2.02 26.424 2.524 26.34 3.156 26.34H5.172V27.168H3.204C2.628 27.168 2.24 27.264 2.04 27.456C1.84 27.648 1.74 27.88 1.74 28.152C1.74 28.464 1.864 28.716 2.112 28.908C2.36 29.092 2.704 29.184 3.144 29.184C3.576 29.184 3.952 29.088 4.272 28.896C4.6 28.704 4.836 28.424 4.98 28.056L5.208 28.848C5.056 29.224 4.788 29.524 4.404 29.748C4.02 29.964 3.536 30.072 2.952 30.072ZM11.6599 23.58C12.1799 23.58 12.6359 23.68 13.0279 23.88C13.4279 24.08 13.7399 24.384 13.9639 24.792C14.1879 25.2 14.2999 25.716 14.2999 26.34V30H13.1479V26.472C13.1479 25.856 12.9959 25.392 12.6919 25.08C12.3959 24.768 11.9759 24.612 11.4319 24.612C11.0239 24.612 10.6679 24.692 10.3639 24.852C10.0599 25.012 9.82388 25.248 9.65588 25.56C9.49588 25.872 9.41588 26.26 9.41588 26.724V30H8.26388V23.64H9.36788V25.356L9.18788 24.9C9.39588 24.484 9.71588 24.16 10.1479 23.928C10.5799 23.696 11.0839 23.58 11.6599 23.58ZM19.0598 30.072C18.4438 30.072 17.8918 29.936 17.4038 29.664C16.9238 29.392 16.5438 29.012 16.2638 28.524C15.9838 28.036 15.8438 27.468 15.8438 26.82C15.8438 26.172 15.9838 25.608 16.2638 25.128C16.5438 24.64 16.9238 24.26 17.4038 23.988C17.8918 23.716 18.4438 23.58 19.0598 23.58C19.5958 23.58 20.0798 23.7 20.5118 23.94C20.9438 24.18 21.2878 24.54 21.5438 25.02C21.8078 25.5 21.9398 26.1 21.9398 26.82C21.9398 27.54 21.8118 28.14 21.5558 28.62C21.3078 29.1 20.9678 29.464 20.5358 29.712C20.1038 29.952 19.6118 30.072 19.0598 30.072ZM19.1558 29.064C19.5558 29.064 19.9158 28.972 20.2358 28.788C20.5638 28.604 20.8198 28.344 21.0038 28.008C21.1958 27.664 21.2918 27.268 21.2918 26.82C21.2918 26.364 21.1958 25.972 21.0038 25.644C20.8198 25.308 20.5638 25.048 20.2358 24.864C19.9158 24.68 19.5558 24.588 19.1558 24.588C18.7478 24.588 18.3838 24.68 18.0638 24.864C17.7438 25.048 17.4878 25.308 17.2958 25.644C17.1038 25.972 17.0078 26.364 17.0078 26.82C17.0078 27.268 17.1038 27.664 17.2958 28.008C17.4878 28.344 17.7438 28.604 18.0638 28.788C18.3838 28.972 18.7478 29.064 19.1558 29.064ZM21.3278 30V28.284L21.3998 26.808L21.2798 25.332V21.096H22.4318V30H21.3278ZM29.5022 30L26.7182 23.64H27.9182L30.3902 29.4H29.8142L32.3342 23.64H33.4622L30.6782 30H29.5022ZM38.2861 30V28.656L38.2261 28.404V26.112C38.2261 25.624 38.0821 25.248 37.7941 24.984C37.5141 24.712 37.0901 24.576 36.5221 24.576C36.1461 24.576 35.7781 24.64 35.4181 24.768C35.0581 24.888 34.7541 25.052 34.5061 25.26L34.0261 24.396C34.3541 24.132 34.7461 23.932 35.2021 23.796C35.6661 23.652 36.1501 23.58 36.6541 23.58C37.5261 23.58 38.1981 23.792 38.6701 24.216C39.1421 24.64 39.3781 25.288 39.3781 26.16V30H38.2861ZM36.1981 30.072C35.7261 30.072 35.3101 29.992 34.9501 29.832C34.5981 29.672 34.3261 29.452 34.1341 29.172C33.9421 28.884 33.8461 28.56 33.8461 28.2C33.8461 27.856 33.9261 27.544 34.0861 27.264C34.2541 26.984 34.5221 26.76 34.8901 26.592C35.2661 26.424 35.7701 26.34 36.4021 26.34H38.4181V27.168H36.4501C35.8741 27.168 35.4861 27.264 35.2861 27.456C35.0861 27.648 34.9861 27.88 34.9861 28.152C34.9861 28.464 35.1101 28.716 35.3581 28.908C35.6061 29.092 35.9501 29.184 36.3901 29.184C36.8221 29.184 37.1981 29.088 37.5181 28.896C37.8461 28.704 38.0821 28.424 38.2261 28.056L38.4541 28.848C38.3021 29.224 38.0341 29.524 37.6501 29.748C37.2661 29.964 36.7821 30.072 36.1981 30.072ZM41.51 30V21.096H42.662V30H41.51ZM47.5375 30.072C46.9935 30.072 46.5135 29.972 46.0975 29.772C45.6895 29.572 45.3695 29.268 45.1375 28.86C44.9135 28.444 44.8015 27.924 44.8015 27.3V23.64H45.9535V27.168C45.9535 27.792 46.1015 28.26 46.3975 28.572C46.7015 28.884 47.1255 29.04 47.6695 29.04C48.0695 29.04 48.4175 28.96 48.7135 28.8C49.0095 28.632 49.2375 28.392 49.3975 28.08C49.5575 27.76 49.6375 27.376 49.6375 26.928V23.64H50.7895V30H49.6975V28.284L49.8775 28.74C49.6695 29.164 49.3575 29.492 48.9415 29.724C48.5255 29.956 48.0575 30.072 47.5375 30.072ZM55.8146 30.072C55.1346 30.072 54.5346 29.932 54.0146 29.652C53.5026 29.372 53.1026 28.988 52.8146 28.5C52.5346 28.012 52.3946 27.452 52.3946 26.82C52.3946 26.188 52.5306 25.628 52.8026 25.14C53.0826 24.652 53.4626 24.272 53.9426 24C54.4306 23.72 54.9786 23.58 55.5866 23.58C56.2026 23.58 56.7466 23.716 57.2186 23.988C57.6906 24.26 58.0586 24.644 58.3226 25.14C58.5946 25.628 58.7306 26.2 58.7306 26.856C58.7306 26.904 58.7266 26.96 58.7186 27.024C58.7186 27.088 58.7146 27.148 58.7066 27.204H53.2946V26.376H58.1066L57.6386 26.664C57.6466 26.256 57.5626 25.892 57.3866 25.572C57.2106 25.252 56.9666 25.004 56.6546 24.828C56.3506 24.644 55.9946 24.552 55.5866 24.552C55.1866 24.552 54.8306 24.644 54.5186 24.828C54.2066 25.004 53.9626 25.256 53.7866 25.584C53.6106 25.904 53.5226 26.272 53.5226 26.688V26.88C53.5226 27.304 53.6186 27.684 53.8106 28.02C54.0106 28.348 54.2866 28.604 54.6386 28.788C54.9906 28.972 55.3946 29.064 55.8506 29.064C56.2266 29.064 56.5666 29 56.8706 28.872C57.1826 28.744 57.4546 28.552 57.6866 28.296L58.3226 29.04C58.0346 29.376 57.6746 29.632 57.2426 29.808C56.8186 29.984 56.3426 30.072 55.8146 30.072ZM66.2769 30.072C65.6369 30.072 65.0689 29.932 64.5729 29.652C64.0769 29.372 63.6849 28.988 63.3969 28.5C63.1089 28.004 62.9649 27.444 62.9649 26.82C62.9649 26.188 63.1089 25.628 63.3969 25.14C63.6849 24.652 64.0769 24.272 64.5729 24C65.0689 23.72 65.6369 23.58 66.2769 23.58C66.9089 23.58 67.4729 23.72 67.9689 24C68.4729 24.272 68.8649 24.652 69.1449 25.14C69.4329 25.62 69.5769 26.18 69.5769 26.82C69.5769 27.452 69.4329 28.012 69.1449 28.5C68.8649 28.988 68.4729 29.372 67.9689 29.652C67.4729 29.932 66.9089 30.072 66.2769 30.072ZM66.2769 29.064C66.6849 29.064 67.0489 28.972 67.3689 28.788C67.6969 28.604 67.9529 28.344 68.1369 28.008C68.3209 27.664 68.4129 27.268 68.4129 26.82C68.4129 26.364 68.3209 25.972 68.1369 25.644C67.9529 25.308 67.6969 25.048 67.3689 24.864C67.0489 24.68 66.6849 24.588 66.2769 24.588C65.8689 24.588 65.5049 24.68 65.1849 24.864C64.8649 25.048 64.6089 25.308 64.4169 25.644C64.2249 25.972 64.1289 26.364 64.1289 26.82C64.1289 27.268 64.2249 27.664 64.4169 28.008C64.6089 28.344 64.8649 28.604 65.1849 28.788C65.5049 28.972 65.8689 29.064 66.2769 29.064ZM71.3381 30V23.076C71.3381 22.452 71.5181 21.956 71.8781 21.588C72.2461 21.212 72.7661 21.024 73.4381 21.024C73.6861 21.024 73.9221 21.056 74.1461 21.12C74.3781 21.176 74.5741 21.268 74.7341 21.396L74.3861 22.272C74.2661 22.176 74.1301 22.104 73.9781 22.056C73.8261 22 73.6661 21.972 73.4981 21.972C73.1621 21.972 72.9061 22.068 72.7301 22.26C72.5541 22.444 72.4661 22.72 72.4661 23.088V23.94L72.4901 24.468V30H71.3381ZM70.2581 24.588V23.64H74.3141V24.588H70.2581ZM81.2513 30.072C80.6353 30.072 80.0833 29.936 79.5953 29.664C79.1153 29.392 78.7353 29.012 78.4553 28.524C78.1753 28.036 78.0353 27.468 78.0353 26.82C78.0353 26.172 78.1753 25.608 78.4553 25.128C78.7353 24.64 79.1153 24.26 79.5953 23.988C80.0833 23.716 80.6353 23.58 81.2513 23.58C81.7873 23.58 82.2713 23.7 82.7033 23.94C83.1353 24.18 83.4793 24.54 83.7353 25.02C83.9993 25.5 84.1313 26.1 84.1313 26.82C84.1313 27.54 84.0033 28.14 83.7473 28.62C83.4993 29.1 83.1593 29.464 82.7273 29.712C82.2953 29.952 81.8033 30.072 81.2513 30.072ZM81.3473 29.064C81.7473 29.064 82.1073 28.972 82.4273 28.788C82.7553 28.604 83.0113 28.344 83.1953 28.008C83.3873 27.664 83.4833 27.268 83.4833 26.82C83.4833 26.364 83.3873 25.972 83.1953 25.644C83.0113 25.308 82.7553 25.048 82.4273 24.864C82.1073 24.68 81.7473 24.588 81.3473 24.588C80.9393 24.588 80.5753 24.68 80.2553 24.864C79.9353 25.048 79.6793 25.308 79.4873 25.644C79.2953 25.972 79.1993 26.364 79.1993 26.82C79.1993 27.268 79.2953 27.664 79.4873 28.008C79.6793 28.344 79.9353 28.604 80.2553 28.788C80.5753 28.972 80.9393 29.064 81.3473 29.064ZM83.5193 30V28.284L83.5912 26.808L83.4713 25.332V21.096H84.6233V30H83.5193ZM90.7509 30V28.656L90.6909 28.404V26.112C90.6909 25.624 90.5469 25.248 90.2589 24.984C89.9789 24.712 89.5549 24.576 88.9869 24.576C88.6109 24.576 88.2429 24.64 87.8829 24.768C87.5229 24.888 87.2189 25.052 86.9709 25.26L86.4909 24.396C86.8189 24.132 87.2109 23.932 87.6669 23.796C88.1309 23.652 88.6149 23.58 89.1189 23.58C89.9909 23.58 90.6629 23.792 91.1349 24.216C91.6069 24.64 91.8429 25.288 91.8429 26.16V30H90.7509ZM88.6629 30.072C88.1909 30.072 87.7749 29.992 87.4149 29.832C87.0629 29.672 86.7909 29.452 86.5989 29.172C86.4069 28.884 86.3109 28.56 86.3109 28.2C86.3109 27.856 86.3909 27.544 86.5509 27.264C86.7189 26.984 86.9869 26.76 87.3549 26.592C87.7309 26.424 88.2349 26.34 88.8669 26.34H90.8829V27.168H88.9149C88.3389 27.168 87.9509 27.264 87.7509 27.456C87.5509 27.648 87.4509 27.88 87.4509 28.152C87.4509 28.464 87.5749 28.716 87.8229 28.908C88.0709 29.092 88.4149 29.184 88.8549 29.184C89.2869 29.184 89.6629 29.088 89.9829 28.896C90.3109 28.704 90.5469 28.424 90.6909 28.056L90.9189 28.848C90.7669 29.224 90.4989 29.524 90.1149 29.748C89.7309 29.964 89.2469 30.072 88.6629 30.072ZM96.1588 30.072C95.5188 30.072 95.0228 29.9 94.6708 29.556C94.3188 29.212 94.1428 28.72 94.1428 28.08V22.248H95.2948V28.032C95.2948 28.376 95.3788 28.64 95.5468 28.824C95.7228 29.008 95.9708 29.1 96.2908 29.1C96.6508 29.1 96.9508 29 97.1908 28.8L97.5508 29.628C97.3748 29.78 97.1628 29.892 96.9148 29.964C96.6748 30.036 96.4228 30.072 96.1588 30.072ZM93.0628 24.588V23.64H97.1188V24.588H93.0628ZM102.892 30V28.656L102.832 28.404V26.112C102.832 25.624 102.688 25.248 102.4 24.984C102.12 24.712 101.696 24.576 101.128 24.576C100.752 24.576 100.384 24.64 100.024 24.768C99.6636 24.888 99.3596 25.052 99.1116 25.26L98.6316 24.396C98.9596 24.132 99.3516 23.932 99.8076 23.796C100.272 23.652 100.756 23.58 101.26 23.58C102.132 23.58 102.804 23.792 103.276 24.216C103.748 24.64 103.984 25.288 103.984 26.16V30H102.892ZM100.804 30.072C100.332 30.072 99.9156 29.992 99.5556 29.832C99.2036 29.672 98.9316 29.452 98.7396 29.172C98.5476 28.884 98.4516 28.56 98.4516 28.2C98.4516 27.856 98.5316 27.544 98.6916 27.264C98.8596 26.984 99.1276 26.76 99.4956 26.592C99.8716 26.424 100.376 26.34 101.008 26.34H103.024V27.168H101.056C100.48 27.168 100.092 27.264 99.8916 27.456C99.6916 27.648 99.5916 27.88 99.5916 28.152C99.5916 28.464 99.7156 28.716 99.9636 28.908C100.212 29.092 100.556 29.184 100.996 29.184C101.428 29.184 101.804 29.088 102.124 28.896C102.452 28.704 102.688 28.424 102.832 28.056L103.06 28.848C102.908 29.224 102.64 29.524 102.256 29.748C101.872 29.964 101.388 30.072 100.804 30.072ZM106.391 30.072C106.167 30.072 105.975 29.996 105.815 29.844C105.655 29.684 105.575 29.484 105.575 29.244C105.575 29.004 105.655 28.808 105.815 28.656C105.975 28.504 106.167 28.428 106.391 28.428C106.607 28.428 106.791 28.504 106.943 28.656C107.103 28.808 107.183 29.004 107.183 29.244C107.183 29.484 107.103 29.684 106.943 29.844C106.791 29.996 106.607 30.072 106.391 30.072ZM110.489 30L107.681 21.6H108.917L111.497 29.352H110.873L113.549 21.6H114.653L117.269 29.352H116.669L119.285 21.6H120.425L117.617 30H116.357L113.909 22.812H114.233L111.773 30H110.489ZM124.076 30.072C123.396 30.072 122.796 29.932 122.276 29.652C121.764 29.372 121.364 28.988 121.076 28.5C120.796 28.012 120.656 27.452 120.656 26.82C120.656 26.188 120.792 25.628 121.064 25.14C121.344 24.652 121.724 24.272 122.204 24C122.692 23.72 123.24 23.58 123.848 23.58C124.464 23.58 125.008 23.716 125.48 23.988C125.952 24.26 126.32 24.644 126.584 25.14C126.856 25.628 126.992 26.2 126.992 26.856C126.992 26.904 126.988 26.96 126.98 27.024C126.98 27.088 126.976 27.148 126.968 27.204H121.556V26.376H126.368L125.9 26.664C125.908 26.256 125.824 25.892 125.648 25.572C125.472 25.252 125.228 25.004 124.916 24.828C124.612 24.644 124.256 24.552 123.848 24.552C123.448 24.552 123.092 24.644 122.78 24.828C122.468 25.004 122.224 25.256 122.048 25.584C121.872 25.904 121.784 26.272 121.784 26.688V26.88C121.784 27.304 121.88 27.684 122.072 28.02C122.272 28.348 122.548 28.604 122.9 28.788C123.252 28.972 123.656 29.064 124.112 29.064C124.488 29.064 124.828 29 125.132 28.872C125.444 28.744 125.716 28.552 125.948 28.296L126.584 29.04C126.296 29.376 125.936 29.632 125.504 29.808C125.08 29.984 124.604 30.072 124.076 30.072ZM135.763 30V28.656L135.703 28.404V26.112C135.703 25.624 135.559 25.248 135.271 24.984C134.991 24.712 134.567 24.576 133.999 24.576C133.623 24.576 133.255 24.64 132.895 24.768C132.535 24.888 132.231 25.052 131.983 25.26L131.503 24.396C131.831 24.132 132.223 23.932 132.679 23.796C133.143 23.652 133.627 23.58 134.131 23.58C135.003 23.58 135.675 23.792 136.147 24.216C136.619 24.64 136.855 25.288 136.855 26.16V30H135.763ZM133.675 30.072C133.203 30.072 132.787 29.992 132.427 29.832C132.075 29.672 131.803 29.452 131.611 29.172C131.419 28.884 131.323 28.56 131.323 28.2C131.323 27.856 131.403 27.544 131.563 27.264C131.731 26.984 131.999 26.76 132.367 26.592C132.743 26.424 133.247 26.34 133.879 26.34H135.895V27.168H133.927C133.351 27.168 132.963 27.264 132.763 27.456C132.563 27.648 132.463 27.88 132.463 28.152C132.463 28.464 132.587 28.716 132.835 28.908C133.083 29.092 133.427 29.184 133.867 29.184C134.299 29.184 134.675 29.088 134.995 28.896C135.323 28.704 135.559 28.424 135.703 28.056L135.931 28.848C135.779 29.224 135.511 29.524 135.127 29.748C134.743 29.964 134.259 30.072 133.675 30.072ZM138.987 30V23.64H140.091V25.368L139.983 24.936C140.159 24.496 140.455 24.16 140.871 23.928C141.287 23.696 141.799 23.58 142.407 23.58V24.696C142.359 24.688 142.311 24.684 142.263 24.684C142.223 24.684 142.183 24.684 142.143 24.684C141.527 24.684 141.039 24.868 140.679 25.236C140.319 25.604 140.139 26.136 140.139 26.832V30H138.987ZM146.6 30.072C145.92 30.072 145.32 29.932 144.8 29.652C144.288 29.372 143.888 28.988 143.6 28.5C143.32 28.012 143.18 27.452 143.18 26.82C143.18 26.188 143.316 25.628 143.588 25.14C143.868 24.652 144.248 24.272 144.728 24C145.216 23.72 145.764 23.58 146.372 23.58C146.988 23.58 147.532 23.716 148.004 23.988C148.476 24.26 148.844 24.644 149.108 25.14C149.38 25.628 149.516 26.2 149.516 26.856C149.516 26.904 149.512 26.96 149.504 27.024C149.504 27.088 149.5 27.148 149.492 27.204H144.08V26.376H148.892L148.424 26.664C148.432 26.256 148.348 25.892 148.172 25.572C147.996 25.252 147.752 25.004 147.44 24.828C147.136 24.644 146.78 24.552 146.372 24.552C145.972 24.552 145.616 24.644 145.304 24.828C144.992 25.004 144.748 25.256 144.572 25.584C144.396 25.904 144.308 26.272 144.308 26.688V26.88C144.308 27.304 144.404 27.684 144.596 28.02C144.796 28.348 145.072 28.604 145.424 28.788C145.776 28.972 146.18 29.064 146.636 29.064C147.012 29.064 147.352 29 147.656 28.872C147.968 28.744 148.24 28.552 148.472 28.296L149.108 29.04C148.82 29.376 148.46 29.632 148.028 29.808C147.604 29.984 147.128 30.072 146.6 30.072ZM157.71 30.072C157.166 30.072 156.674 29.952 156.234 29.712C155.802 29.464 155.458 29.1 155.202 28.62C154.954 28.14 154.83 27.54 154.83 26.82C154.83 26.1 154.958 25.5 155.214 25.02C155.478 24.54 155.826 24.18 156.258 23.94C156.698 23.7 157.182 23.58 157.71 23.58C158.334 23.58 158.886 23.716 159.366 23.988C159.846 24.26 160.226 24.64 160.506 25.128C160.786 25.608 160.926 26.172 160.926 26.82C160.926 27.468 160.786 28.036 160.506 28.524C160.226 29.012 159.846 29.392 159.366 29.664C158.886 29.936 158.334 30.072 157.71 30.072ZM154.338 30V21.096H155.49V25.332L155.37 26.808L155.442 28.284V30H154.338ZM157.614 29.064C158.022 29.064 158.386 28.972 158.706 28.788C159.034 28.604 159.29 28.344 159.474 28.008C159.666 27.664 159.762 27.268 159.762 26.82C159.762 26.364 159.666 25.972 159.474 25.644C159.29 25.308 159.034 25.048 158.706 24.864C158.386 24.68 158.022 24.588 157.614 24.588C157.214 24.588 156.85 24.68 156.522 24.864C156.202 25.048 155.946 25.308 155.754 25.644C155.57 25.972 155.478 26.364 155.478 26.82C155.478 27.268 155.57 27.664 155.754 28.008C155.946 28.344 156.202 28.604 156.522 28.788C156.85 28.972 157.214 29.064 157.614 29.064ZM165.194 30.072C164.65 30.072 164.17 29.972 163.754 29.772C163.346 29.572 163.026 29.268 162.794 28.86C162.57 28.444 162.458 27.924 162.458 27.3V23.64H163.61V27.168C163.61 27.792 163.758 28.26 164.054 28.572C164.358 28.884 164.782 29.04 165.326 29.04C165.726 29.04 166.074 28.96 166.37 28.8C166.666 28.632 166.894 28.392 167.054 28.08C167.214 27.76 167.294 27.376 167.294 26.928V23.64H168.446V30H167.354V28.284L167.534 28.74C167.326 29.164 167.014 29.492 166.598 29.724C166.182 29.956 165.714 30.072 165.194 30.072ZM170.639 30V23.64H171.791V30H170.639ZM171.215 22.416C170.991 22.416 170.803 22.344 170.651 22.2C170.507 22.056 170.435 21.88 170.435 21.672C170.435 21.456 170.507 21.276 170.651 21.132C170.803 20.988 170.991 20.916 171.215 20.916C171.439 20.916 171.623 20.988 171.767 21.132C171.919 21.268 171.995 21.44 171.995 21.648C171.995 21.864 171.923 22.048 171.779 22.2C171.635 22.344 171.447 22.416 171.215 22.416ZM173.99 30V21.096H175.142V30H173.99ZM179.97 30.072C179.354 30.072 178.802 29.936 178.314 29.664C177.834 29.392 177.454 29.012 177.174 28.524C176.894 28.036 176.754 27.468 176.754 26.82C176.754 26.172 176.894 25.608 177.174 25.128C177.454 24.64 177.834 24.26 178.314 23.988C178.802 23.716 179.354 23.58 179.97 23.58C180.506 23.58 180.99 23.7 181.422 23.94C181.854 24.18 182.198 24.54 182.454 25.02C182.718 25.5 182.85 26.1 182.85 26.82C182.85 27.54 182.722 28.14 182.466 28.62C182.218 29.1 181.878 29.464 181.446 29.712C181.014 29.952 180.522 30.072 179.97 30.072ZM180.066 29.064C180.466 29.064 180.826 28.972 181.146 28.788C181.474 28.604 181.73 28.344 181.914 28.008C182.106 27.664 182.202 27.268 182.202 26.82C182.202 26.364 182.106 25.972 181.914 25.644C181.73 25.308 181.474 25.048 181.146 24.864C180.826 24.68 180.466 24.588 180.066 24.588C179.658 24.588 179.294 24.68 178.974 24.864C178.654 25.048 178.398 25.308 178.206 25.644C178.014 25.972 177.918 26.364 177.918 26.82C177.918 27.268 178.014 27.664 178.206 28.008C178.398 28.344 178.654 28.604 178.974 28.788C179.294 28.972 179.658 29.064 180.066 29.064ZM182.238 30V28.284L182.31 26.808L182.19 25.332V21.096H183.342V30H182.238ZM185.522 30V23.64H186.674V30H185.522ZM186.098 22.416C185.874 22.416 185.686 22.344 185.534 22.2C185.39 22.056 185.318 21.88 185.318 21.672C185.318 21.456 185.39 21.276 185.534 21.132C185.686 20.988 185.874 20.916 186.098 20.916C186.322 20.916 186.506 20.988 186.65 21.132C186.802 21.268 186.878 21.44 186.878 21.648C186.878 21.864 186.806 22.048 186.662 22.2C186.518 22.344 186.33 22.416 186.098 22.416ZM192.269 23.58C192.789 23.58 193.245 23.68 193.637 23.88C194.037 24.08 194.349 24.384 194.573 24.792C194.797 25.2 194.909 25.716 194.909 26.34V30H193.757V26.472C193.757 25.856 193.605 25.392 193.301 25.08C193.005 24.768 192.585 24.612 192.041 24.612C191.633 24.612 191.277 24.692 190.973 24.852C190.669 25.012 190.433 25.248 190.265 25.56C190.105 25.872 190.025 26.26 190.025 26.724V30H188.873V23.64H189.977V25.356L189.797 24.9C190.005 24.484 190.325 24.16 190.757 23.928C191.189 23.696 191.693 23.58 192.269 23.58ZM199.825 32.4C199.241 32.4 198.673 32.316 198.121 32.148C197.577 31.988 197.133 31.756 196.789 31.452L197.341 30.564C197.637 30.82 198.001 31.02 198.433 31.164C198.865 31.316 199.317 31.392 199.789 31.392C200.541 31.392 201.093 31.216 201.445 30.864C201.797 30.512 201.973 29.976 201.973 29.256V27.912L202.093 26.652L202.033 25.38V23.64H203.125V29.136C203.125 30.256 202.845 31.08 202.285 31.608C201.725 32.136 200.905 32.4 199.825 32.4ZM199.681 29.736C199.065 29.736 198.513 29.608 198.025 29.352C197.545 29.088 197.161 28.724 196.873 28.26C196.593 27.796 196.453 27.26 196.453 26.652C196.453 26.036 196.593 25.5 196.873 25.044C197.161 24.58 197.545 24.22 198.025 23.964C198.513 23.708 199.065 23.58 199.681 23.58C200.225 23.58 200.721 23.692 201.169 23.916C201.617 24.132 201.973 24.468 202.237 24.924C202.509 25.38 202.645 25.956 202.645 26.652C202.645 27.34 202.509 27.912 202.237 28.368C201.973 28.824 201.617 29.168 201.169 29.4C200.721 29.624 200.225 29.736 199.681 29.736ZM199.813 28.728C200.237 28.728 200.613 28.64 200.941 28.464C201.269 28.288 201.525 28.044 201.709 27.732C201.901 27.42 201.997 27.06 201.997 26.652C201.997 26.244 201.901 25.884 201.709 25.572C201.525 25.26 201.269 25.02 200.941 24.852C200.613 24.676 200.237 24.588 199.813 24.588C199.389 24.588 199.009 24.676 198.673 24.852C198.345 25.02 198.085 25.26 197.893 25.572C197.709 25.884 197.617 26.244 197.617 26.652C197.617 27.06 197.709 27.42 197.893 27.732C198.085 28.044 198.345 28.288 198.673 28.464C199.009 28.64 199.389 28.728 199.813 28.728ZM212.497 30V28.656L212.437 28.404V26.112C212.437 25.624 212.293 25.248 212.005 24.984C211.725 24.712 211.301 24.576 210.733 24.576C210.357 24.576 209.989 24.64 209.629 24.768C209.269 24.888 208.965 25.052 208.717 25.26L208.237 24.396C208.565 24.132 208.957 23.932 209.413 23.796C209.877 23.652 210.361 23.58 210.865 23.58C211.737 23.58 212.409 23.792 212.881 24.216C213.353 24.64 213.589 25.288 213.589 26.16V30H212.497ZM210.409 30.072C209.937 30.072 209.521 29.992 209.161 29.832C208.809 29.672 208.537 29.452 208.345 29.172C208.153 28.884 208.057 28.56 208.057 28.2C208.057 27.856 208.137 27.544 208.297 27.264C208.465 26.984 208.733 26.76 209.101 26.592C209.477 26.424 209.981 26.34 210.613 26.34H212.629V27.168H210.661C210.085 27.168 209.697 27.264 209.497 27.456C209.297 27.648 209.197 27.88 209.197 28.152C209.197 28.464 209.321 28.716 209.569 28.908C209.817 29.092 210.161 29.184 210.601 29.184C211.033 29.184 211.409 29.088 211.729 28.896C212.057 28.704 212.293 28.424 212.437 28.056L212.665 28.848C212.513 29.224 212.245 29.524 211.861 29.748C211.477 29.964 210.993 30.072 210.409 30.072ZM221.572 30.072C220.956 30.072 220.404 29.936 219.916 29.664C219.436 29.392 219.056 29.012 218.776 28.524C218.496 28.036 218.356 27.468 218.356 26.82C218.356 26.172 218.496 25.608 218.776 25.128C219.056 24.64 219.436 24.26 219.916 23.988C220.404 23.716 220.956 23.58 221.572 23.58C222.108 23.58 222.592 23.7 223.024 23.94C223.456 24.18 223.8 24.54 224.056 25.02C224.32 25.5 224.452 26.1 224.452 26.82C224.452 27.54 224.324 28.14 224.068 28.62C223.82 29.1 223.48 29.464 223.048 29.712C222.616 29.952 222.124 30.072 221.572 30.072ZM221.668 29.064C222.068 29.064 222.428 28.972 222.748 28.788C223.076 28.604 223.332 28.344 223.516 28.008C223.708 27.664 223.804 27.268 223.804 26.82C223.804 26.364 223.708 25.972 223.516 25.644C223.332 25.308 223.076 25.048 222.748 24.864C222.428 24.68 222.068 24.588 221.668 24.588C221.26 24.588 220.896 24.68 220.576 24.864C220.256 25.048 220 25.308 219.808 25.644C219.616 25.972 219.52 26.364 219.52 26.82C219.52 27.268 219.616 27.664 219.808 28.008C220 28.344 220.256 28.604 220.576 28.788C220.896 28.972 221.26 29.064 221.668 29.064ZM223.84 30V28.284L223.912 26.808L223.792 25.332V21.096H224.944V30H223.84ZM231.071 30V28.656L231.011 28.404V26.112C231.011 25.624 230.867 25.248 230.579 24.984C230.299 24.712 229.875 24.576 229.307 24.576C228.931 24.576 228.563 24.64 228.203 24.768C227.843 24.888 227.539 25.052 227.291 25.26L226.811 24.396C227.139 24.132 227.531 23.932 227.987 23.796C228.451 23.652 228.935 23.58 229.439 23.58C230.311 23.58 230.983 23.792 231.455 24.216C231.927 24.64 232.163 25.288 232.163 26.16V30H231.071ZM228.983 30.072C228.511 30.072 228.095 29.992 227.735 29.832C227.383 29.672 227.111 29.452 226.919 29.172C226.727 28.884 226.631 28.56 226.631 28.2C226.631 27.856 226.711 27.544 226.871 27.264C227.039 26.984 227.307 26.76 227.675 26.592C228.051 26.424 228.555 26.34 229.187 26.34H231.203V27.168H229.235C228.659 27.168 228.271 27.264 228.071 27.456C227.871 27.648 227.771 27.88 227.771 28.152C227.771 28.464 227.895 28.716 228.143 28.908C228.391 29.092 228.735 29.184 229.175 29.184C229.607 29.184 229.983 29.088 230.303 28.896C230.631 28.704 230.867 28.424 231.011 28.056L231.239 28.848C231.087 29.224 230.819 29.524 230.435 29.748C230.051 29.964 229.567 30.072 228.983 30.072ZM236.479 30.072C235.839 30.072 235.343 29.9 234.991 29.556C234.639 29.212 234.463 28.72 234.463 28.08V22.248H235.615V28.032C235.615 28.376 235.699 28.64 235.867 28.824C236.043 29.008 236.291 29.1 236.611 29.1C236.971 29.1 237.271 29 237.511 28.8L237.871 29.628C237.695 29.78 237.483 29.892 237.235 29.964C236.995 30.036 236.743 30.072 236.479 30.072ZM233.383 24.588V23.64H237.439V24.588H233.383ZM243.212 30V28.656L243.152 28.404V26.112C243.152 25.624 243.008 25.248 242.72 24.984C242.44 24.712 242.016 24.576 241.448 24.576C241.072 24.576 240.704 24.64 240.344 24.768C239.984 24.888 239.68 25.052 239.432 25.26L238.952 24.396C239.28 24.132 239.672 23.932 240.128 23.796C240.592 23.652 241.076 23.58 241.58 23.58C242.452 23.58 243.124 23.792 243.596 24.216C244.068 24.64 244.304 25.288 244.304 26.16V30H243.212ZM241.124 30.072C240.652 30.072 240.236 29.992 239.876 29.832C239.524 29.672 239.252 29.452 239.06 29.172C238.868 28.884 238.772 28.56 238.772 28.2C238.772 27.856 238.852 27.544 239.012 27.264C239.18 26.984 239.448 26.76 239.816 26.592C240.192 26.424 240.696 26.34 241.328 26.34H243.344V27.168H241.376C240.8 27.168 240.412 27.264 240.212 27.456C240.012 27.648 239.912 27.88 239.912 28.152C239.912 28.464 240.036 28.716 240.284 28.908C240.532 29.092 240.876 29.184 241.316 29.184C241.748 29.184 242.124 29.088 242.444 28.896C242.772 28.704 243.008 28.424 243.152 28.056L243.38 28.848C243.228 29.224 242.96 29.524 242.576 29.748C242.192 29.964 241.708 30.072 241.124 30.072ZM257.614 23.58C258.126 23.58 258.578 23.68 258.97 23.88C259.362 24.08 259.666 24.384 259.882 24.792C260.106 25.2 260.218 25.716 260.218 26.34V30H259.066V26.472C259.066 25.856 258.922 25.392 258.634 25.08C258.346 24.768 257.942 24.612 257.422 24.612C257.038 24.612 256.702 24.692 256.414 24.852C256.126 25.012 255.902 25.248 255.742 25.56C255.59 25.872 255.514 26.26 255.514 26.724V30H254.362V26.472C254.362 25.856 254.218 25.392 253.93 25.08C253.65 24.768 253.246 24.612 252.718 24.612C252.342 24.612 252.01 24.692 251.722 24.852C251.434 25.012 251.21 25.248 251.05 25.56C250.89 25.872 250.81 26.26 250.81 26.724V30H249.658V23.64H250.762V25.332L250.582 24.9C250.782 24.484 251.09 24.16 251.506 23.928C251.922 23.696 252.406 23.58 252.958 23.58C253.566 23.58 254.09 23.732 254.53 24.036C254.97 24.332 255.258 24.784 255.394 25.392L254.926 25.2C255.118 24.712 255.454 24.32 255.934 24.024C256.414 23.728 256.974 23.58 257.614 23.58ZM266.286 30V28.656L266.226 28.404V26.112C266.226 25.624 266.082 25.248 265.794 24.984C265.514 24.712 265.09 24.576 264.522 24.576C264.146 24.576 263.778 24.64 263.418 24.768C263.058 24.888 262.754 25.052 262.506 25.26L262.026 24.396C262.354 24.132 262.746 23.932 263.202 23.796C263.666 23.652 264.15 23.58 264.654 23.58C265.526 23.58 266.198 23.792 266.67 24.216C267.142 24.64 267.378 25.288 267.378 26.16V30H266.286ZM264.198 30.072C263.726 30.072 263.31 29.992 262.95 29.832C262.598 29.672 262.326 29.452 262.134 29.172C261.942 28.884 261.846 28.56 261.846 28.2C261.846 27.856 261.926 27.544 262.086 27.264C262.254 26.984 262.522 26.76 262.89 26.592C263.266 26.424 263.77 26.34 264.402 26.34H266.418V27.168H264.45C263.874 27.168 263.486 27.264 263.286 27.456C263.086 27.648 262.986 27.88 262.986 28.152C262.986 28.464 263.11 28.716 263.358 28.908C263.606 29.092 263.95 29.184 264.39 29.184C264.822 29.184 265.198 29.088 265.518 28.896C265.846 28.704 266.082 28.424 266.226 28.056L266.454 28.848C266.302 29.224 266.034 29.524 265.65 29.748C265.266 29.964 264.782 30.072 264.198 30.072ZM269.51 30V23.64H270.614V25.368L270.506 24.936C270.682 24.496 270.978 24.16 271.394 23.928C271.81 23.696 272.322 23.58 272.93 23.58V24.696C272.882 24.688 272.834 24.684 272.786 24.684C272.746 24.684 272.706 24.684 272.666 24.684C272.05 24.684 271.562 24.868 271.202 25.236C270.842 25.604 270.662 26.136 270.662 26.832V30H269.51ZM275.286 28.464L275.31 26.988L278.97 23.64H280.362L277.554 26.4L276.93 26.928L275.286 28.464ZM274.35 30V21.096H275.502V30H274.35ZM279.21 30L276.714 26.904L277.458 25.98L280.626 30H279.21ZM284.319 30.072C283.639 30.072 283.039 29.932 282.519 29.652C282.007 29.372 281.607 28.988 281.319 28.5C281.039 28.012 280.899 27.452 280.899 26.82C280.899 26.188 281.035 25.628 281.307 25.14C281.587 24.652 281.967 24.272 282.447 24C282.935 23.72 283.483 23.58 284.091 23.58C284.707 23.58 285.251 23.716 285.723 23.988C286.195 24.26 286.563 24.644 286.827 25.14C287.099 25.628 287.235 26.2 287.235 26.856C287.235 26.904 287.231 26.96 287.223 27.024C287.223 27.088 287.219 27.148 287.211 27.204H281.799V26.376H286.611L286.143 26.664C286.151 26.256 286.067 25.892 285.891 25.572C285.715 25.252 285.471 25.004 285.159 24.828C284.855 24.644 284.499 24.552 284.091 24.552C283.691 24.552 283.335 24.644 283.023 24.828C282.711 25.004 282.467 25.256 282.291 25.584C282.115 25.904 282.027 26.272 282.027 26.688V26.88C282.027 27.304 282.123 27.684 282.315 28.02C282.515 28.348 282.791 28.604 283.143 28.788C283.495 28.972 283.899 29.064 284.355 29.064C284.731 29.064 285.071 29 285.375 28.872C285.687 28.744 285.959 28.552 286.191 28.296L286.827 29.04C286.539 29.376 286.179 29.632 285.747 29.808C285.323 29.984 284.847 30.072 284.319 30.072ZM291.018 30.072C290.378 30.072 289.882 29.9 289.53 29.556C289.178 29.212 289.002 28.72 289.002 28.08V22.248H290.154V28.032C290.154 28.376 290.238 28.64 290.406 28.824C290.582 29.008 290.83 29.1 291.15 29.1C291.51 29.1 291.81 29 292.05 28.8L292.41 29.628C292.234 29.78 292.022 29.892 291.774 29.964C291.534 30.036 291.282 30.072 291.018 30.072ZM287.922 24.588V23.64H291.978V24.588H287.922ZM297.175 30.072C296.647 30.072 296.163 29.952 295.723 29.712C295.291 29.464 294.943 29.1 294.679 28.62C294.423 28.14 294.295 27.54 294.295 26.82C294.295 26.1 294.419 25.5 294.667 25.02C294.923 24.54 295.267 24.18 295.699 23.94C296.139 23.7 296.631 23.58 297.175 23.58C297.799 23.58 298.351 23.716 298.831 23.988C299.311 24.26 299.691 24.64 299.971 25.128C300.251 25.608 300.391 26.172 300.391 26.82C300.391 27.468 300.251 28.036 299.971 28.524C299.691 29.012 299.311 29.392 298.831 29.664C298.351 29.936 297.799 30.072 297.175 30.072ZM293.803 32.328V23.64H294.907V25.356L294.835 26.832L294.955 28.308V32.328H293.803ZM297.079 29.064C297.487 29.064 297.851 28.972 298.171 28.788C298.499 28.604 298.755 28.344 298.939 28.008C299.131 27.664 299.227 27.268 299.227 26.82C299.227 26.364 299.131 25.972 298.939 25.644C298.755 25.308 298.499 25.048 298.171 24.864C297.851 24.68 297.487 24.588 297.079 24.588C296.679 24.588 296.315 24.68 295.987 24.864C295.667 25.048 295.411 25.308 295.219 25.644C295.035 25.972 294.943 26.364 294.943 26.82C294.943 27.268 295.035 27.664 295.219 28.008C295.411 28.344 295.667 28.604 295.987 28.788C296.315 28.972 296.679 29.064 297.079 29.064ZM301.983 30V21.096H303.135V30H301.983ZM309.282 30V28.656L309.222 28.404V26.112C309.222 25.624 309.078 25.248 308.79 24.984C308.51 24.712 308.086 24.576 307.518 24.576C307.142 24.576 306.774 24.64 306.414 24.768C306.054 24.888 305.75 25.052 305.502 25.26L305.022 24.396C305.35 24.132 305.742 23.932 306.198 23.796C306.662 23.652 307.146 23.58 307.65 23.58C308.522 23.58 309.194 23.792 309.666 24.216C310.138 24.64 310.374 25.288 310.374 26.16V30H309.282ZM307.194 30.072C306.722 30.072 306.306 29.992 305.946 29.832C305.594 29.672 305.322 29.452 305.13 29.172C304.938 28.884 304.842 28.56 304.842 28.2C304.842 27.856 304.922 27.544 305.082 27.264C305.25 26.984 305.518 26.76 305.886 26.592C306.262 26.424 306.766 26.34 307.398 26.34H309.414V27.168H307.446C306.87 27.168 306.482 27.264 306.282 27.456C306.082 27.648 305.982 27.88 305.982 28.152C305.982 28.464 306.106 28.716 306.354 28.908C306.602 29.092 306.946 29.184 307.386 29.184C307.818 29.184 308.194 29.088 308.514 28.896C308.842 28.704 309.078 28.424 309.222 28.056L309.45 28.848C309.298 29.224 309.03 29.524 308.646 29.748C308.262 29.964 307.778 30.072 307.194 30.072ZM315.278 30.072C314.63 30.072 314.05 29.932 313.538 29.652C313.034 29.372 312.638 28.988 312.35 28.5C312.062 28.012 311.918 27.452 311.918 26.82C311.918 26.188 312.062 25.628 312.35 25.14C312.638 24.652 313.034 24.272 313.538 24C314.05 23.72 314.63 23.58 315.278 23.58C315.854 23.58 316.366 23.696 316.814 23.928C317.27 24.152 317.622 24.488 317.87 24.936L316.994 25.5C316.786 25.188 316.53 24.96 316.226 24.816C315.93 24.664 315.61 24.588 315.266 24.588C314.85 24.588 314.478 24.68 314.15 24.864C313.822 25.048 313.562 25.308 313.37 25.644C313.178 25.972 313.082 26.364 313.082 26.82C313.082 27.276 313.178 27.672 313.37 28.008C313.562 28.344 313.822 28.604 314.15 28.788C314.478 28.972 314.85 29.064 315.266 29.064C315.61 29.064 315.93 28.992 316.226 28.848C316.53 28.696 316.786 28.464 316.994 28.152L317.87 28.704C317.622 29.144 317.27 29.484 316.814 29.724C316.366 29.956 315.854 30.072 315.278 30.072ZM322.1 30.072C321.42 30.072 320.82 29.932 320.3 29.652C319.788 29.372 319.388 28.988 319.1 28.5C318.82 28.012 318.68 27.452 318.68 26.82C318.68 26.188 318.816 25.628 319.088 25.14C319.368 24.652 319.748 24.272 320.228 24C320.716 23.72 321.264 23.58 321.872 23.58C322.488 23.58 323.032 23.716 323.504 23.988C323.976 24.26 324.344 24.644 324.608 25.14C324.88 25.628 325.016 26.2 325.016 26.856C325.016 26.904 325.012 26.96 325.004 27.024C325.004 27.088 325 27.148 324.992 27.204H319.58V26.376H324.392L323.924 26.664C323.932 26.256 323.848 25.892 323.672 25.572C323.496 25.252 323.252 25.004 322.94 24.828C322.636 24.644 322.28 24.552 321.872 24.552C321.472 24.552 321.116 24.644 320.804 24.828C320.492 25.004 320.248 25.256 320.072 25.584C319.896 25.904 319.808 26.272 319.808 26.688V26.88C319.808 27.304 319.904 27.684 320.096 28.02C320.296 28.348 320.572 28.604 320.924 28.788C321.276 28.972 321.68 29.064 322.136 29.064C322.512 29.064 322.852 29 323.156 28.872C323.468 28.744 323.74 28.552 323.972 28.296L324.608 29.04C324.32 29.376 323.96 29.632 323.528 29.808C323.104 29.984 322.628 30.072 322.1 30.072ZM326.891 30.072C326.667 30.072 326.475 29.996 326.315 29.844C326.155 29.684 326.075 29.484 326.075 29.244C326.075 29.004 326.155 28.808 326.315 28.656C326.475 28.504 326.667 28.428 326.891 28.428C327.107 28.428 327.291 28.504 327.443 28.656C327.603 28.808 327.683 29.004 327.683 29.244C327.683 29.484 327.603 29.684 327.443 29.844C327.291 29.996 327.107 30.072 326.891 30.072Z" fill="white"/>
</svg>
