<svg width="50" height="50" viewBox="0 0 50 50" fill="none" xmlns="http://www.w3.org/2000/svg">
<g clip-path="url(#clip0_4_24)">
<path d="M34.6154 0.361542C26.3173 0.361542 19.5904 4.07116 19.5904 8.65385C19.5904 13.2365 26.3192 16.9481 34.6154 16.9481C42.9135 16.9481 49.6404 13.2365 49.6404 8.65385C49.6404 4.07116 42.9115 0.361542 34.6154 0.361542ZM49.6404 11.1173C49.6365 15.7 42.9135 19.4115 34.6154 19.4115C26.3404 19.4115 19.6288 15.7404 19.5904 11.1788V14.4231C19.5904 16.3808 20.8442 18.1731 22.8981 19.5923C24.975 20.1577 26.825 20.9423 28.3654 21.9346C30.275 22.4192 32.375 22.7154 34.6154 22.7154C42.9135 22.7154 49.6404 19.0058 49.6404 14.4231V11.1173ZM49.6404 16.8865C49.6404 21.4692 42.9135 25.1808 34.6154 25.1808C33.6058 25.1808 32.625 25.1058 31.6712 25C32.4238 26.0137 32.9373 27.1846 33.1731 28.425C33.6519 28.4519 34.125 28.4846 34.6154 28.4846C42.9135 28.4846 49.6404 24.775 49.6404 20.1923V16.8865ZM15.3846 21.5135C7.08654 21.5135 0.359619 25.225 0.359619 29.8077C0.359619 34.3904 7.08846 38.1019 15.3846 38.1019C23.6827 38.1019 30.4096 34.3904 30.4096 29.8077C30.4096 25.225 23.6808 21.5135 15.3846 21.5135ZM49.6404 22.6558C49.6365 27.2385 42.9135 30.95 34.6154 30.95C34.1327 30.95 33.6442 30.9154 33.1731 30.8885C33.1519 31.0327 33.1404 31.225 33.1135 31.3692C33.2096 31.6596 33.2923 31.9462 33.2923 32.2731V34.1962C33.7288 34.2173 34.1673 34.2538 34.6154 34.2538C42.9135 34.2538 49.6404 30.5442 49.6404 25.9615V22.6558ZM49.6404 28.425C49.6365 33.0077 42.9135 36.7192 34.6154 36.7192C34.1327 36.7192 33.6442 36.6846 33.1731 36.6577C33.1519 36.8019 33.1404 36.9942 33.1135 37.1385C33.2096 37.4269 33.2923 37.7154 33.2923 38.0423V39.9654C33.7288 39.9865 34.1673 40.0231 34.6154 40.0231C42.9135 40.0231 49.6404 36.3135 49.6404 31.7308V28.425ZM30.4096 32.2712C30.4058 36.8538 23.6827 40.5654 15.3846 40.5654C7.10962 40.5654 0.398081 36.8942 0.359619 32.3308V35.5769C0.359619 40.1596 7.08462 43.8711 15.3846 43.8711C23.6846 43.8711 30.4096 40.1596 30.4096 35.5769V32.2712ZM30.4096 38.0404C30.4058 42.6231 23.6827 46.3346 15.3846 46.3346C7.10962 46.3346 0.398081 42.6635 0.359619 38.1V41.3462C0.359619 45.9288 7.08462 49.6404 15.3846 49.6404C23.6846 49.6404 30.4096 45.9288 30.4096 41.3462V38.0404Z" fill="black"/>
</g>
<defs>
<clipPath id="clip0_4_24">
<rect width="50" height="50" fill="white"/>
</clipPath>
</defs>
</svg>
